<?xml version="1.0" encoding="utf-8"?>
<!-- Generator: Adobe Illustrator 16.0.3, SVG Export Plug-In . SVG Version: 6.00 Build 0)  -->
<!DOCTYPE svg PUBLIC "-//W3C//DTD SVG 1.1//EN" "http://www.w3.org/Graphics/SVG/1.1/DTD/svg11.dtd">
<svg version="1.1" xmlns="http://www.w3.org/2000/svg" xmlns:xlink="http://www.w3.org/1999/xlink" x="0px" y="0px" width="500px"
	 height="500px" viewBox="0 0 500 500" enable-background="new 0 0 500 500" xml:space="preserve">
<g id="Panel" display="none">
</g>
<g id="åˆ‡ã‚ŠæŠœã">
	<path fill="#00080D" d="M0,0v500h500V0H0z M173.36,262L152.5,240l20.859-22v13.063H207.5V240v8.937H173.36V262z M320,416.833
		c0,4.786-3.299,8.667-7.368,8.667H187.368c-4.068,0-7.368-3.881-7.368-8.667v-47.666c0-4.786,3.3-8.667,7.368-8.667h125.264
		c4.069,0,7.368,3.881,7.368,8.667V416.833z M225,257.5v-35c0-1.381,1.398-2.5,3.125-2.5h43.75c1.727,0,3.125,1.119,3.125,2.5v35
		c0,1.381-1.398,2.5-3.125,2.5h-43.75C226.399,260,225,258.881,225,257.5z M326.642,262v-13.063H292.5V240v-8.937h34.142V218
		l20.858,22L326.642,262z M362.516,444.883l-15.002-25.984C405.79,385.18,445,322.171,445,250c0-107.695-87.305-195-195-195
		S55,142.304,55,250c0,72.171,39.21,135.18,97.487,168.899l-15.002,25.984C70.243,405.977,25,333.273,25,250
		C25,125.736,125.736,25,250,25s225,100.736,225,225C475,333.273,429.758,405.977,362.516,444.883z"/>
</g>
<g id="Mask">
	<path fill="#150000" d="M117.475,243.57c0,49.049,26.648,91.871,66.254,114.787l8.836-15.305
		c-34.325-19.861-57.419-56.975-57.419-99.482c0-63.432,51.422-114.854,114.854-114.854v-17.67
		C176.809,111.045,117.475,170.379,117.475,243.57z"/>
	<path fill="none" stroke="#F4FF32" stroke-miterlimit="10" d="M-82.34,582.34"/>
	<line fill="none" stroke="#444444" stroke-miterlimit="10" x1="159.986" y1="405.91" x2="152.487" y2="418.898"/>
	<line fill="none" stroke="#444444" stroke-miterlimit="10" x1="150.711" y1="412.024" x2="148.102" y2="416.283"/>
	<line fill="none" stroke="#444444" stroke-miterlimit="10" x1="146.507" y1="409.365" x2="143.786" y2="413.555"/>
	<line fill="none" stroke="#444444" stroke-miterlimit="10" x1="142.373" y1="406.599" x2="139.544" y2="410.715"/>
	<line fill="none" stroke="#444444" stroke-miterlimit="10" x1="138.313" y1="403.724" x2="135.377" y2="407.765"/>
	<line fill="none" stroke="#444444" stroke-miterlimit="10" x1="137.374" y1="396.777" x2="131.29" y2="404.707"/>
	<line fill="none" stroke="#444444" stroke-miterlimit="10" x1="130.426" y1="397.662" x2="127.282" y2="401.544"/>
	<line fill="none" stroke="#444444" stroke-miterlimit="10" x1="126.603" y1="394.479" x2="123.358" y2="398.278"/>
	<line fill="none" stroke="#444444" stroke-miterlimit="10" x1="122.864" y1="391.198" x2="119.521" y2="394.911"/>
	<line fill="none" stroke="#444444" stroke-miterlimit="10" x1="119.213" y1="387.821" x2="115.774" y2="391.445"/>
	<line fill="none" stroke="#444444" stroke-miterlimit="10" x1="122.7" y1="377.301" x2="112.096" y2="387.905"/>
	<line fill="none" stroke="#444444" stroke-miterlimit="10" x1="112.16" y1="380.807" x2="108.537" y2="384.244"/>
	<line fill="none" stroke="#444444" stroke-miterlimit="10" x1="108.787" y1="377.149" x2="105.074" y2="380.492"/>
	<line fill="none" stroke="#444444" stroke-miterlimit="10" x1="105.509" y1="373.407" x2="101.711" y2="376.65"/>
	<line fill="none" stroke="#444444" stroke-miterlimit="10" x1="102.333" y1="369.579" x2="98.451" y2="372.723"/>
	<line fill="none" stroke="#444444" stroke-miterlimit="10" x1="103.223" y1="362.627" x2="95.293" y2="368.711"/>
	<line fill="none" stroke="#444444" stroke-miterlimit="10" x1="96.282" y1="361.683" x2="92.242" y2="364.619"/>
	<line fill="none" stroke="#444444" stroke-miterlimit="10" x1="93.414" y1="357.619" x2="89.296" y2="360.449"/>
	<line fill="none" stroke="#444444" stroke-miterlimit="10" x1="90.652" y1="353.482" x2="86.461" y2="356.203"/>
	<line fill="none" stroke="#444444" stroke-miterlimit="10" x1="87.999" y1="349.275" x2="83.739" y2="351.886"/>
	<line fill="none" stroke="#444444" stroke-miterlimit="10" x1="94.09" y1="340.016" x2="81.103" y2="347.515"/>
	<line fill="none" stroke="#444444" stroke-miterlimit="10" x1="83.001" y1="340.674" x2="78.612" y2="343.057"/>
	<line fill="none" stroke="#444444" stroke-miterlimit="10" x1="80.689" y1="336.269" x2="76.238" y2="338.537"/>
	<line fill="none" stroke="#444444" stroke-miterlimit="10" x1="78.492" y1="331.806" x2="73.985" y2="333.955"/>
	<line fill="none" stroke="#444444" stroke-miterlimit="10" x1="76.415" y1="327.285" x2="71.851" y2="329.317"/>
	<line fill="none" stroke="#444444" stroke-miterlimit="10" x1="79.074" y1="320.801" x2="69.84" y2="324.625"/>
	<line fill="none" stroke="#444444" stroke-miterlimit="10" x1="72.615" y1="318.092" x2="67.952" y2="319.883"/>
	<line fill="none" stroke="#444444" stroke-miterlimit="10" x1="70.895" y1="313.425" x2="66.186" y2="315.093"/>
	<line fill="none" stroke="#444444" stroke-miterlimit="10" x1="69.298" y1="308.714" x2="64.546" y2="310.258"/>
	<line fill="none" stroke="#444444" stroke-miterlimit="10" x1="67.824" y1="303.964" x2="63.034" y2="305.383"/>
	<line fill="none" stroke="#444444" stroke-miterlimit="10" x1="76.105" y1="296.596" x2="61.619" y2="300.479"/>
	<line fill="none" stroke="#444444" stroke-miterlimit="10" x1="65.224" y1="294.362" x2="60.367" y2="295.527"/>
	<line fill="none" stroke="#444444" stroke-miterlimit="10" x1="64.13" y1="289.509" x2="59.244" y2="290.548"/>
	<line fill="none" stroke="#444444" stroke-miterlimit="10" x1="63.163" y1="284.629" x2="58.253" y2="285.539"/>
	<line fill="none" stroke="#444444" stroke-miterlimit="10" x1="62.327" y1="279.726" x2="57.393" y2="280.507"/>
	<line fill="none" stroke="#444444" stroke-miterlimit="10" x1="66.574" y1="274.149" x2="56.665" y2="275.454"/>
	<line fill="none" stroke="#444444" stroke-miterlimit="10" x1="61.035" y1="269.861" x2="56.068" y2="270.385"/>
	<line fill="none" stroke="#444444" stroke-miterlimit="10" x1="60.582" y1="264.908" x2="55.602" y2="265.301"/>
	<line fill="none" stroke="#444444" stroke-miterlimit="10" x1="60.259" y1="259.944" x2="55.269" y2="260.206"/>
	<line fill="none" stroke="#444444" stroke-miterlimit="10" x1="60.065" y1="254.975" x2="55.07" y2="255.105"/>
	<line fill="none" stroke="#444444" stroke-miterlimit="10" x1="69.97" y1="250.001" x2="54.973" y2="250.002"/>
	<line fill="none" stroke="#444444" stroke-miterlimit="10" x1="60.039" y1="245.027" x2="55.045" y2="244.896"/>
	<line fill="none" stroke="#444444" stroke-miterlimit="10" x1="60.238" y1="240.057" x2="55.249" y2="239.795"/>
	<line fill="none" stroke="#444444" stroke-miterlimit="10" x1="60.566" y1="235.092" x2="55.589" y2="234.701"/>
	<line fill="none" stroke="#444444" stroke-miterlimit="10" x1="61.028" y1="230.14" x2="56.06" y2="229.617"/>
	<line fill="none" stroke="#444444" stroke-miterlimit="10" x1="66.574" y1="225.854" x2="56.664" y2="224.548"/>
	<line fill="none" stroke="#444444" stroke-miterlimit="10" x1="62.333" y1="220.277" x2="57.4" y2="219.497"/>
	<line fill="none" stroke="#444444" stroke-miterlimit="10" x1="63.178" y1="215.375" x2="58.265" y2="214.466"/>
	<line fill="none" stroke="#444444" stroke-miterlimit="10" x1="64.151" y1="210.497" x2="59.263" y2="209.459"/>
	<line fill="none" stroke="#444444" stroke-miterlimit="10" x1="65.249" y1="205.646" x2="60.391" y2="204.48"/>
	<line fill="none" stroke="#444444" stroke-miterlimit="10" x1="76.104" y1="203.406" x2="61.618" y2="199.525"/>
	<line fill="none" stroke="#444444" stroke-miterlimit="10" x1="67.798" y1="196.031" x2="63.009" y2="194.611"/>
	<line fill="none" stroke="#444444" stroke-miterlimit="10" x1="69.277" y1="191.282" x2="64.526" y2="189.738"/>
	<line fill="none" stroke="#444444" stroke-miterlimit="10" x1="70.879" y1="186.57" x2="66.173" y2="184.905"/>
	<line fill="none" stroke="#444444" stroke-miterlimit="10" x1="72.607" y1="181.907" x2="67.944" y2="180.117"/>
	<line fill="none" stroke="#444444" stroke-miterlimit="10" x1="79.073" y1="179.203" x2="69.839" y2="175.377"/>
	<line fill="none" stroke="#444444" stroke-miterlimit="10" x1="76.421" y1="172.719" x2="71.857" y2="170.688"/>
	<line fill="none" stroke="#444444" stroke-miterlimit="10" x1="78.505" y1="168.202" x2="73.996" y2="166.052"/>
	<line fill="none" stroke="#444444" stroke-miterlimit="10" x1="80.708" y1="163.742" x2="76.254" y2="161.475"/>
	<line fill="none" stroke="#444444" stroke-miterlimit="10" x1="83.023" y1="159.341" x2="78.633" y2="156.957"/>
	<line fill="none" stroke="#444444" stroke-miterlimit="10" x1="94.088" y1="159.986" x2="81.101" y2="152.488"/>
	<line fill="none" stroke="#444444" stroke-miterlimit="10" x1="87.975" y1="150.713" x2="83.716" y2="148.103"/>
	<line fill="none" stroke="#444444" stroke-miterlimit="10" x1="90.632" y1="146.509" x2="86.443" y2="143.788"/>
	<line fill="none" stroke="#444444" stroke-miterlimit="10" x1="93.4" y1="142.372" x2="89.285" y2="139.546"/>
	<line fill="none" stroke="#444444" stroke-miterlimit="10" x1="96.275" y1="138.315" x2="92.234" y2="135.379"/>
	<line fill="none" stroke="#444444" stroke-miterlimit="10" x1="103.221" y1="137.377" x2="95.292" y2="131.291"/>
	<line fill="none" stroke="#444444" stroke-miterlimit="10" x1="102.337" y1="130.427" x2="98.455" y2="127.283"/>
	<line fill="none" stroke="#444444" stroke-miterlimit="10" x1="105.52" y1="126.604" x2="101.72" y2="123.359"/>
	<line fill="none" stroke="#444444" stroke-miterlimit="10" x1="108.801" y1="122.865" x2="105.086" y2="119.522"/>
	<line fill="none" stroke="#444444" stroke-miterlimit="10" x1="112.177" y1="119.213" x2="108.553" y2="115.775"/>
	<line fill="none" stroke="#444444" stroke-miterlimit="10" x1="122.698" y1="122.701" x2="112.094" y2="112.098"/>
	<line fill="none" stroke="#444444" stroke-miterlimit="10" x1="119.194" y1="112.161" x2="115.755" y2="108.538"/>
	<line fill="none" stroke="#444444" stroke-miterlimit="10" x1="122.848" y1="108.788" x2="119.505" y2="105.076"/>
	<line fill="none" stroke="#444444" stroke-miterlimit="10" x1="126.592" y1="105.509" x2="123.348" y2="101.714"/>
	<line fill="none" stroke="#444444" stroke-miterlimit="10" x1="130.418" y1="102.334" x2="127.276" y2="98.451"/>
	<line fill="none" stroke="#444444" stroke-miterlimit="10" x1="137.372" y1="103.226" x2="131.288" y2="95.295"/>
	<line fill="none" stroke="#444444" stroke-miterlimit="10" x1="138.316" y1="96.283" x2="135.379" y2="92.242"/>
	<line fill="none" stroke="#444444" stroke-miterlimit="10" x1="142.38" y1="93.414" x2="139.549" y2="89.297"/>
	<line fill="none" stroke="#444444" stroke-miterlimit="10" x1="146.517" y1="90.652" x2="143.794" y2="86.463"/>
	<line fill="none" stroke="#444444" stroke-miterlimit="10" x1="150.724" y1="87.999" x2="148.113" y2="83.74"/>
	<line fill="none" stroke="#444444" stroke-miterlimit="10" x1="159.983" y1="94.091" x2="152.485" y2="81.104"/>
	<line fill="none" stroke="#444444" stroke-miterlimit="10" x1="159.326" y1="83.003" x2="156.943" y2="78.613"/>
	<line fill="none" stroke="#444444" stroke-miterlimit="10" x1="163.729" y1="80.69" x2="161.46" y2="76.24"/>
	<line fill="none" stroke="#444444" stroke-miterlimit="10" x1="168.195" y1="78.492" x2="166.043" y2="73.987"/>
	<line fill="none" stroke="#444444" stroke-miterlimit="10" x1="172.712" y1="76.416" x2="170.681" y2="71.852"/>
	<line fill="none" stroke="#444444" stroke-miterlimit="10" x1="179.197" y1="79.076" x2="175.374" y2="69.842"/>
	<line fill="none" stroke="#444444" stroke-miterlimit="10" x1="181.907" y1="72.615" x2="180.116" y2="67.952"/>
	<line fill="none" stroke="#444444" stroke-miterlimit="10" x1="186.574" y1="70.896" x2="184.906" y2="66.187"/>
	<line fill="none" stroke="#444444" stroke-miterlimit="10" x1="191.285" y1="69.299" x2="189.739" y2="64.547"/>
	<line fill="none" stroke="#444444" stroke-miterlimit="10" x1="196.036" y1="67.825" x2="194.616" y2="63.035"/>
	<line fill="none" stroke="#444444" stroke-miterlimit="10" x1="203.403" y1="76.105" x2="199.521" y2="61.621"/>
	<line fill="none" stroke="#444444" stroke-miterlimit="10" x1="205.638" y1="65.225" x2="204.472" y2="60.369"/>
	<line fill="none" stroke="#444444" stroke-miterlimit="10" x1="210.489" y1="64.131" x2="209.45" y2="59.245"/>
	<line fill="none" stroke="#444444" stroke-miterlimit="10" x1="215.372" y1="63.164" x2="214.459" y2="58.256"/>
	<line fill="none" stroke="#444444" stroke-miterlimit="10" x1="220.272" y1="62.327" x2="219.492" y2="57.393"/>
	<line fill="none" stroke="#444444" stroke-miterlimit="10" x1="225.848" y1="66.576" x2="224.545" y2="56.666"/>
	<line fill="none" stroke="#444444" stroke-miterlimit="10" x1="230.138" y1="61.036" x2="229.615" y2="56.068"/>
	<line fill="none" stroke="#444444" stroke-miterlimit="10" x1="235.091" y1="60.583" x2="234.698" y2="55.603"/>
	<line fill="none" stroke="#444444" stroke-miterlimit="10" x1="240.055" y1="60.26" x2="239.792" y2="55.27"/>
	<line fill="none" stroke="#444444" stroke-miterlimit="10" x1="245.025" y1="60.066" x2="244.893" y2="55.072"/>
	<line fill="none" stroke="#444444" stroke-miterlimit="10" x1="249.853" y1="88.517" x2="249.846" y2="24.935"/>
	<line fill="none" stroke="#444444" stroke-miterlimit="10" x1="254.973" y1="60.039" x2="255.104" y2="55.048"/>
	<line fill="none" stroke="#444444" stroke-miterlimit="10" x1="259.941" y1="60.238" x2="260.203" y2="55.25"/>
	<line fill="none" stroke="#444444" stroke-miterlimit="10" x1="264.908" y1="60.568" x2="265.297" y2="55.591"/>
	<line fill="none" stroke="#444444" stroke-miterlimit="10" x1="269.857" y1="61.028" x2="270.382" y2="56.06"/>
	<line fill="none" stroke="#444444" stroke-miterlimit="10" x1="274.145" y1="66.575" x2="275.451" y2="56.666"/>
	<line fill="none" stroke="#444444" stroke-miterlimit="10" x1="279.723" y1="62.334" x2="280.502" y2="57.4"/>
	<line fill="none" stroke="#444444" stroke-miterlimit="10" x1="284.623" y1="63.179" x2="285.533" y2="58.267"/>
	<line fill="none" stroke="#444444" stroke-miterlimit="10" x1="289.502" y1="64.151" x2="290.539" y2="59.264"/>
	<line fill="none" stroke="#444444" stroke-miterlimit="10" x1="294.354" y1="65.251" x2="295.518" y2="60.393"/>
	<line fill="none" stroke="#444444" stroke-miterlimit="10" x1="296.594" y1="76.105" x2="300.473" y2="61.62"/>
	<line fill="none" stroke="#444444" stroke-miterlimit="10" x1="303.969" y1="67.799" x2="305.387" y2="63.012"/>
	<line fill="none" stroke="#444444" stroke-miterlimit="10" x1="308.717" y1="69.277" x2="310.26" y2="64.527"/>
	<line fill="none" stroke="#444444" stroke-miterlimit="10" x1="313.428" y1="70.882" x2="315.092" y2="66.174"/>
	<line fill="none" stroke="#444444" stroke-miterlimit="10" x1="318.09" y1="72.607" x2="319.883" y2="67.943"/>
	<line fill="none" stroke="#444444" stroke-miterlimit="10" x1="320.795" y1="79.074" x2="324.623" y2="69.841"/>
	<line fill="none" stroke="#444444" stroke-miterlimit="10" x1="327.281" y1="76.422" x2="329.311" y2="71.857"/>
	<line fill="none" stroke="#444444" stroke-miterlimit="10" x1="331.797" y1="78.506" x2="333.947" y2="73.997"/>
	<line fill="none" stroke="#444444" stroke-miterlimit="10" x1="336.257" y1="80.708" x2="338.523" y2="76.256"/>
	<line fill="none" stroke="#444444" stroke-miterlimit="10" x1="340.658" y1="83.025" x2="343.041" y2="78.635"/>
	<line fill="none" stroke="#444444" stroke-miterlimit="10" x1="340.014" y1="94.091" x2="347.51" y2="81.103"/>
	<line fill="none" stroke="#444444" stroke-miterlimit="10" x1="349.287" y1="87.976" x2="351.896" y2="83.719"/>
	<line fill="none" stroke="#444444" stroke-miterlimit="10" x1="353.49" y1="90.633" x2="356.211" y2="86.444"/>
	<line fill="none" stroke="#444444" stroke-miterlimit="10" x1="357.625" y1="93.401" x2="360.451" y2="89.285"/>
	<line fill="none" stroke="#444444" stroke-miterlimit="10" x1="361.682" y1="96.275" x2="364.621" y2="92.234"/>
	<line fill="none" stroke="#444444" stroke-miterlimit="10" x1="362.621" y1="103.222" x2="368.709" y2="95.294"/>
	<line fill="none" stroke="#444444" stroke-miterlimit="10" x1="369.573" y1="102.339" x2="372.715" y2="98.455"/>
	<line fill="none" stroke="#444444" stroke-miterlimit="10" x1="373.396" y1="105.521" x2="376.641" y2="101.722"/>
	<line fill="none" stroke="#444444" stroke-miterlimit="10" x1="377.133" y1="108.802" x2="380.475" y2="105.088"/>
	<line fill="none" stroke="#444444" stroke-miterlimit="10" x1="380.785" y1="112.18" x2="384.223" y2="108.555"/>
	<line fill="none" stroke="#444444" stroke-miterlimit="10" x1="377.299" y1="122.701" x2="387.9" y2="112.096"/>
	<line fill="none" stroke="#444444" stroke-miterlimit="10" x1="387.839" y1="119.193" x2="391.461" y2="115.758"/>
	<line fill="none" stroke="#444444" stroke-miterlimit="10" x1="391.211" y1="122.849" x2="394.924" y2="119.507"/>
	<line fill="none" stroke="#444444" stroke-miterlimit="10" x1="394.488" y1="126.594" x2="398.283" y2="123.349"/>
	<line fill="none" stroke="#444444" stroke-miterlimit="10" x1="397.662" y1="130.419" x2="401.549" y2="127.276"/>
	<line fill="none" stroke="#444444" stroke-miterlimit="10" x1="396.773" y1="137.372" x2="404.705" y2="131.29"/>
	<line fill="none" stroke="#444444" stroke-miterlimit="10" x1="403.717" y1="138.318" x2="407.756" y2="135.38"/>
	<line fill="none" stroke="#444444" stroke-miterlimit="10" x1="406.586" y1="142.381" x2="410.703" y2="139.551"/>
	<line fill="none" stroke="#444444" stroke-miterlimit="10" x1="409.346" y1="146.518" x2="413.535" y2="143.795"/>
	<line fill="none" stroke="#444444" stroke-miterlimit="10" x1="412" y1="150.726" x2="416.258" y2="148.113"/>
	<line fill="none" stroke="#444444" stroke-miterlimit="10" x1="405.908" y1="159.986" x2="418.895" y2="152.486"/>
	<line fill="none" stroke="#444444" stroke-miterlimit="10" x1="416.998" y1="159.326" x2="421.385" y2="156.945"/>
	<line fill="none" stroke="#444444" stroke-miterlimit="10" x1="419.309" y1="163.729" x2="423.76" y2="161.463"/>
	<line fill="none" stroke="#444444" stroke-miterlimit="10" x1="421.505" y1="168.195" x2="426.01" y2="166.043"/>
	<line fill="none" stroke="#444444" stroke-miterlimit="10" x1="423.58" y1="172.712" x2="428.148" y2="170.682"/>
	<line fill="none" stroke="#444444" stroke-miterlimit="10" x1="420.922" y1="179.197" x2="430.158" y2="175.376"/>
	<line fill="none" stroke="#444444" stroke-miterlimit="10" x1="427.385" y1="181.909" x2="432.047" y2="180.115"/>
	<line fill="none" stroke="#444444" stroke-miterlimit="10" x1="429.104" y1="186.576" x2="433.813" y2="184.907"/>
	<line fill="none" stroke="#444444" stroke-miterlimit="10" x1="430.699" y1="191.285" x2="435.451" y2="189.74"/>
	<line fill="none" stroke="#444444" stroke-miterlimit="10" x1="432.174" y1="196.037" x2="436.963" y2="194.616"/>
	<line fill="none" stroke="#444444" stroke-miterlimit="10" x1="423.893" y1="203.406" x2="438.379" y2="199.522"/>
	<line fill="none" stroke="#444444" stroke-miterlimit="10" x1="434.775" y1="205.639" x2="439.629" y2="204.475"/>
	<line fill="none" stroke="#444444" stroke-miterlimit="10" x1="435.867" y1="210.49" x2="440.754" y2="209.452"/>
	<line fill="none" stroke="#444444" stroke-miterlimit="10" x1="436.834" y1="215.371" x2="441.742" y2="214.459"/>
	<line fill="none" stroke="#444444" stroke-miterlimit="10" x1="437.67" y1="220.271" x2="442.607" y2="219.493"/>
	<line fill="none" stroke="#444444" stroke-miterlimit="10" x1="433.423" y1="225.848" x2="443.334" y2="224.547"/>
	<line fill="none" stroke="#444444" stroke-miterlimit="10" x1="438.963" y1="230.141" x2="443.932" y2="229.614"/>
	<line fill="none" stroke="#444444" stroke-miterlimit="10" x1="439.416" y1="235.094" x2="444.397" y2="234.7"/>
	<line fill="none" stroke="#444444" stroke-miterlimit="10" x1="439.738" y1="240.055" x2="444.729" y2="239.792"/>
	<line fill="none" stroke="#444444" stroke-miterlimit="10" x1="439.934" y1="245.026" x2="444.927" y2="244.894"/>
	<line fill="none" stroke="#444444" stroke-miterlimit="10" x1="430.027" y1="250.001" x2="445.025" y2="249.999"/>
	<line fill="none" stroke="#444444" stroke-miterlimit="10" x1="439.961" y1="254.974" x2="444.951" y2="255.105"/>
	<line fill="none" stroke="#444444" stroke-miterlimit="10" x1="439.76" y1="259.943" x2="444.748" y2="260.205"/>
	<line fill="none" stroke="#444444" stroke-miterlimit="10" x1="439.43" y1="264.907" x2="444.407" y2="265.297"/>
	<line fill="none" stroke="#444444" stroke-miterlimit="10" x1="438.969" y1="269.857" x2="443.939" y2="270.384"/>
	<line fill="none" stroke="#444444" stroke-miterlimit="10" x1="433.424" y1="274.145" x2="443.334" y2="275.453"/>
	<line fill="none" stroke="#444444" stroke-miterlimit="10" x1="437.664" y1="279.725" x2="442.6" y2="280.502"/>
	<line fill="none" stroke="#444444" stroke-miterlimit="10" x1="436.82" y1="284.627" x2="441.733" y2="285.535"/>
	<line fill="none" stroke="#444444" stroke-miterlimit="10" x1="435.848" y1="289.502" x2="440.735" y2="290.539"/>
	<line fill="none" stroke="#444444" stroke-miterlimit="10" x1="434.748" y1="294.354" x2="439.606" y2="295.519"/>
	<line fill="none" stroke="#444444" stroke-miterlimit="10" x1="423.893" y1="296.596" x2="438.381" y2="300.476"/>
	<line fill="none" stroke="#444444" stroke-miterlimit="10" x1="432.201" y1="303.971" x2="436.986" y2="305.389"/>
	<line fill="none" stroke="#444444" stroke-miterlimit="10" x1="430.721" y1="308.719" x2="435.471" y2="310.263"/>
	<line fill="none" stroke="#444444" stroke-miterlimit="10" x1="429.117" y1="313.428" x2="433.824" y2="315.092"/>
	<line fill="none" stroke="#444444" stroke-miterlimit="10" x1="427.391" y1="318.09" x2="432.055" y2="319.885"/>
	<line fill="none" stroke="#444444" stroke-miterlimit="10" x1="420.925" y1="320.796" x2="430.158" y2="324.625"/>
	<line fill="none" stroke="#444444" stroke-miterlimit="10" x1="423.576" y1="327.283" x2="428.143" y2="329.312"/>
	<line fill="none" stroke="#444444" stroke-miterlimit="10" x1="421.492" y1="331.8" x2="426.003" y2="333.949"/>
	<line fill="none" stroke="#444444" stroke-miterlimit="10" x1="419.291" y1="336.257" x2="423.744" y2="338.524"/>
	<line fill="none" stroke="#444444" stroke-miterlimit="10" x1="416.973" y1="340.66" x2="421.365" y2="343.041"/>
	<line fill="none" stroke="#444444" stroke-miterlimit="10" x1="405.908" y1="340.015" x2="418.898" y2="347.513"/>
	<line fill="none" stroke="#444444" stroke-miterlimit="10" x1="412.023" y1="349.289" x2="416.279" y2="351.897"/>
	<line fill="none" stroke="#444444" stroke-miterlimit="10" x1="409.365" y1="353.492" x2="413.554" y2="356.213"/>
	<line fill="none" stroke="#444444" stroke-miterlimit="10" x1="406.598" y1="357.626" x2="410.713" y2="360.451"/>
	<line fill="none" stroke="#444444" stroke-miterlimit="10" x1="403.723" y1="361.682" x2="407.764" y2="364.623"/>
	<line fill="none" stroke="#444444" stroke-miterlimit="10" x1="396.777" y1="362.622" x2="404.705" y2="368.711"/>
	<line fill="none" stroke="#444444" stroke-miterlimit="10" x1="397.659" y1="369.575" x2="401.545" y2="372.716"/>
	<line fill="none" stroke="#444444" stroke-miterlimit="10" x1="394.477" y1="373.398" x2="398.278" y2="376.642"/>
	<line fill="none" stroke="#444444" stroke-miterlimit="10" x1="391.197" y1="377.134" x2="394.912" y2="380.477"/>
	<line fill="none" stroke="#444444" stroke-miterlimit="10" x1="387.818" y1="380.787" x2="391.445" y2="384.224"/>
	<line fill="none" stroke="#444444" stroke-miterlimit="10" x1="377.299" y1="377.3" x2="387.904" y2="387.904"/>
	<line fill="none" stroke="#444444" stroke-miterlimit="10" x1="380.805" y1="387.841" x2="384.24" y2="391.462"/>
	<line fill="none" stroke="#444444" stroke-miterlimit="10" x1="377.149" y1="391.213" x2="380.49" y2="394.925"/>
	<line fill="none" stroke="#444444" stroke-miterlimit="10" x1="373.406" y1="394.489" x2="376.65" y2="398.283"/>
	<line fill="none" stroke="#444444" stroke-miterlimit="10" x1="369.579" y1="397.663" x2="372.721" y2="401.55"/>
	<line fill="none" stroke="#444444" stroke-miterlimit="10" x1="362.627" y1="396.773" x2="368.709" y2="404.707"/>
	<line fill="none" stroke="#444444" stroke-miterlimit="10" x1="361.68" y1="403.718" x2="364.619" y2="407.758"/>
	<line fill="none" stroke="#444444" stroke-miterlimit="10" x1="357.615" y1="406.588" x2="360.448" y2="410.704"/>
	<line fill="none" stroke="#444444" stroke-miterlimit="10" x1="353.48" y1="409.347" x2="356.205" y2="413.537"/>
	<line fill="none" stroke="#444444" stroke-miterlimit="10" x1="349.271" y1="412.001" x2="351.887" y2="416.259"/>
	<line fill="none" stroke="#444444" stroke-miterlimit="10" x1="340.014" y1="405.91" x2="347.514" y2="418.897"/>
	<path fill="#00102A" d="M249.85,111.045v17.67c63.434,0,114.855,51.422,114.855,114.854c0,42.508-23.095,79.621-57.42,99.482
		l8.836,15.305c39.606-22.916,66.254-65.738,66.254-114.787C382.375,170.379,323.041,111.045,249.85,111.045z"/>
	<g>
		<g>
			<path fill="#555555" d="M119.164,244.798l0.182-6.037c0.034-1.106,0.239-1.94,0.616-2.502s0.875-0.927,1.494-1.096
				c0.619-0.168,1.415-0.238,2.387-0.208c0.933,0.028,1.707,0.145,2.321,0.35c0.614,0.206,1.099,0.604,1.455,1.194
				c0.356,0.591,0.517,1.446,0.483,2.565l-0.128,4.278l4.998,0.15l-0.052,1.719L119.164,244.798z M126.483,239.596
				c0.026-0.866-0.045-1.502-0.212-1.907c-0.168-0.405-0.437-0.673-0.806-0.805c-0.37-0.131-0.927-0.208-1.674-0.23
				s-1.308,0.018-1.685,0.12s-0.661,0.347-0.853,0.735s-0.301,1.015-0.327,1.881l-0.112,3.738l5.557,0.167L126.483,239.596z"/>
			<path fill="#555555" d="M133.865,226.684c-0.492,0.683-1.199,1.043-2.122,1.083c-0.923,0.041-2.453-0.137-4.59-0.53
				c-2.137-0.394-3.63-0.774-4.478-1.141c-0.848-0.366-1.38-0.956-1.596-1.769c-0.216-0.813-0.159-2.117,0.172-3.914
				c0.329-1.783,0.739-3.019,1.232-3.708c0.493-0.688,1.201-1.053,2.124-1.093c0.922-0.04,2.453,0.137,4.59,0.531
				c2.137,0.394,3.63,0.774,4.478,1.14c0.847,0.367,1.379,0.959,1.594,1.778c0.215,0.82,0.158,2.121-0.17,3.904
				C134.768,224.763,134.357,226.001,133.865,226.684z M133.771,219.915c-0.083-0.503-0.453-0.89-1.108-1.16
				c-0.655-0.27-1.914-0.576-3.776-0.919c-1.862-0.343-3.147-0.505-3.855-0.487s-1.191,0.248-1.449,0.689
				c-0.257,0.44-0.51,1.33-0.756,2.667c-0.247,1.337-0.329,2.261-0.247,2.771c0.083,0.51,0.451,0.9,1.106,1.17
				c0.655,0.271,1.914,0.577,3.776,0.92c1.862,0.343,3.147,0.505,3.855,0.487c0.708-0.019,1.192-0.251,1.451-0.699
				c0.259-0.447,0.511-1.339,0.758-2.677C133.772,221.338,133.854,220.418,133.771,219.915z"/>
			<path fill="#555555" d="M140.845,201.907l-5.804,0.224l-0.113,0.321l-1.435,4.075l5.093,1.794l-0.571,1.623l-12.979-4.571
				l2.1-5.961c0.363-1.031,0.801-1.753,1.314-2.166s1.075-0.604,1.686-0.573c0.611,0.032,1.35,0.2,2.218,0.506
				c0.893,0.314,1.623,0.72,2.19,1.217c0.567,0.497,0.826,1.196,0.777,2.097l6.135-0.32L140.845,201.907z M133.646,200.463
				c-0.035-0.443-0.197-0.776-0.486-0.998c-0.289-0.222-0.748-0.444-1.377-0.666c-0.642-0.226-1.143-0.346-1.506-0.361
				c-0.362-0.014-0.688,0.129-0.978,0.43s-0.572,0.841-0.847,1.621l-1.335,3.792l4.867,1.714l1.289-3.659
				C133.556,201.531,133.68,200.907,133.646,200.463z"/>
			<path fill="#555555" d="M145.94,190.733l-10.714-5.624l-2.026,3.86l-1.47-0.771l4.843-9.226l1.47,0.771l-2.017,3.843
				l10.713,5.624L145.94,190.733z"/>
		</g>
		<g>
			<path fill="#555555" d="M352.308,187.594c-0.375-0.82-0.69-1.555-0.945-2.204l1.396-0.741c0.66,1.612,1.263,2.93,1.807,3.955
				c0.338,0.636,0.632,1.125,0.882,1.468s0.515,0.606,0.794,0.79c0.266,0.16,0.557,0.203,0.87,0.126
				c0.314-0.076,0.701-0.236,1.161-0.48c0.553-0.294,0.929-0.531,1.127-0.712c0.198-0.181,0.293-0.408,0.283-0.682
				c-0.01-0.274-0.132-0.689-0.366-1.244l-1.26-3.181c-0.306-0.774-0.424-1.417-0.356-1.928c0.068-0.512,0.284-0.943,0.648-1.295
				c0.363-0.352,0.893-0.712,1.588-1.082c0.965-0.513,1.785-0.733,2.457-0.66c0.673,0.073,1.253,0.369,1.74,0.888
				s1.003,1.291,1.547,2.315c0.362,0.683,0.702,1.393,1.019,2.131s0.543,1.334,0.68,1.791l-1.342,0.713
				c-0.168-0.485-0.405-1.068-0.715-1.75c-0.309-0.682-0.613-1.305-0.914-1.87c-0.351-0.66-0.661-1.174-0.933-1.543
				c-0.271-0.369-0.537-0.628-0.798-0.776c-0.272-0.172-0.545-0.231-0.818-0.177c-0.273,0.055-0.627,0.198-1.063,0.429
				c-0.483,0.256-0.814,0.478-0.995,0.664s-0.268,0.406-0.261,0.66c0.006,0.253,0.107,0.622,0.305,1.106l1.24,3.146
				c0.305,0.744,0.473,1.357,0.502,1.839c0.03,0.482-0.138,0.934-0.503,1.354c-0.337,0.39-0.97,0.833-1.9,1.327
				c-1.071,0.569-1.957,0.828-2.655,0.777c-0.699-0.051-1.27-0.315-1.711-0.79s-0.918-1.196-1.431-2.161
				C353.042,189.147,352.683,188.414,352.308,187.594z"/>
			<path fill="#555555" d="M359.723,203.557l11.374-4.127l-1.487-4.099l1.561-0.566l3.554,9.795l-1.56,0.566l-1.48-4.08
				l-11.375,4.127L359.723,203.557z"/>
			<path fill="#555555" d="M377.102,213.069l1.29,6.269c0.264,1.28,0.165,2.256-0.295,2.93c-0.461,0.673-1.246,1.125-2.356,1.353
				c-0.9,0.186-1.653,0.149-2.258-0.107c-0.604-0.257-1.067-0.774-1.391-1.551l-0.079,0.016c0.021,0.962-0.206,1.676-0.682,2.141
				c-0.477,0.466-1.178,0.794-2.104,0.985c-1.098,0.226-2.019,0.133-2.764-0.279s-1.265-1.336-1.561-2.772l-1.278-6.21
				L377.102,213.069z M366.913,222.793c0.217,0.33,0.501,0.536,0.853,0.621c0.351,0.084,0.807,0.069,1.368-0.047
				c0.81-0.167,1.346-0.474,1.607-0.923c0.261-0.449,0.298-1.13,0.109-2.044l-0.847-4.114l-4.466,0.919l0.847,4.114
				C366.519,221.973,366.694,222.464,366.913,222.793z M373.312,221.742c0.435,0.326,1.018,0.413,1.749,0.263
				c0.549-0.113,0.958-0.272,1.229-0.478c0.271-0.206,0.442-0.496,0.515-0.872c0.072-0.376,0.041-0.89-0.093-1.543l-0.831-4.036
				l-4.31,0.887l0.831,4.035C372.574,220.835,372.877,221.416,373.312,221.742z"/>
			<path fill="#555555" d="M380.347,232.729l0.221,4.375c0.096,1.904-0.007,3.257-0.307,4.061c-0.301,0.802-0.885,1.333-1.753,1.59
				c-0.868,0.257-2.374,0.44-4.518,0.547c-2.145,0.108-3.661,0.077-4.551-0.091c-0.89-0.169-1.523-0.638-1.903-1.406
				c-0.379-0.769-0.616-2.105-0.712-4.009l-0.22-4.375L380.347,232.729z M368.408,237.434c0.078,1.558,0.214,2.603,0.408,3.134
				c0.193,0.531,0.624,0.86,1.291,0.986s1.933,0.143,3.797,0.049c1.851-0.093,3.105-0.24,3.763-0.439
				c0.657-0.2,1.056-0.574,1.195-1.122c0.14-0.547,0.17-1.594,0.093-3.139l-0.12-2.377l-10.546,0.53L368.408,237.434z"/>
		</g>
	</g>
	<g>
		<path fill="#444444" d="M247.336,103.362c-0.49-0.248-0.798-0.684-0.924-1.309s-0.189-1.708-0.189-3.248s0.063-2.623,0.189-3.248
			c0.126-0.625,0.434-1.062,0.924-1.309c0.49-0.247,1.328-0.371,2.513-0.371s2.023,0.124,2.513,0.371
			c0.49,0.248,0.798,0.686,0.925,1.316c0.125,0.63,0.188,1.71,0.188,3.241c0,1.54-0.063,2.623-0.188,3.248
			c-0.127,0.625-0.435,1.062-0.925,1.309c-0.489,0.247-1.327,0.371-2.513,0.371S247.827,103.609,247.336,103.362z M251.578,102.424
			c0.295-0.126,0.483-0.422,0.567-0.889s0.126-1.376,0.126-2.73c0-1.353-0.042-2.263-0.126-2.73s-0.272-0.763-0.567-0.889
			c-0.293-0.126-0.87-0.189-1.729-0.189c-0.859,0-1.438,0.063-1.736,0.189s-0.49,0.422-0.574,0.889s-0.126,1.377-0.126,2.73
			c0,1.354,0.042,2.263,0.126,2.73s0.275,0.763,0.574,0.889c0.299,0.126,0.877,0.189,1.736,0.189
			C250.708,102.613,251.285,102.55,251.578,102.424z"/>
	</g>
	<g>
		<path fill="#444444" d="M85.542,209.489c0.709,0,1.244-0.054,1.603-0.161c0.359-0.107,0.606-0.292,0.742-0.553
			c0.135-0.261,0.203-0.639,0.203-1.134c0-0.541-0.072-0.933-0.217-1.176c-0.145-0.242-0.401-0.403-0.77-0.483
			c-0.369-0.079-0.95-0.119-1.743-0.119c-0.672,0-1.503,0.061-2.492,0.182v-5.18h5.726v1.134h-4.62v2.87
			c0.672-0.084,1.386-0.126,2.142-0.126c0.887,0,1.559,0.1,2.016,0.301c0.457,0.201,0.768,0.495,0.931,0.882
			c0.163,0.387,0.245,0.912,0.245,1.575c0,0.793-0.101,1.41-0.301,1.848c-0.201,0.439-0.563,0.758-1.085,0.959
			c-0.523,0.201-1.283,0.301-2.282,0.301c-0.448,0-0.945-0.023-1.491-0.07s-1.01-0.107-1.393-0.182v-1.036
			C83.895,209.433,84.823,209.489,85.542,209.489z"/>
		<path fill="#444444" d="M92.479,210.238c-0.49-0.248-0.798-0.684-0.924-1.309s-0.189-1.708-0.189-3.248s0.063-2.623,0.189-3.248
			c0.126-0.625,0.434-1.062,0.924-1.309c0.49-0.247,1.328-0.371,2.513-0.371c1.185,0,2.023,0.124,2.513,0.371
			c0.49,0.248,0.798,0.686,0.924,1.316c0.126,0.63,0.189,1.71,0.189,3.241c0,1.54-0.063,2.623-0.189,3.248s-0.434,1.062-0.924,1.309
			c-0.49,0.247-1.328,0.371-2.513,0.371C93.806,210.609,92.969,210.485,92.479,210.238z M96.721,209.3
			c0.294-0.126,0.483-0.422,0.567-0.889s0.126-1.376,0.126-2.73c0-1.353-0.042-2.263-0.126-2.73s-0.273-0.763-0.567-0.889
			s-0.871-0.189-1.729-0.189c-0.859,0-1.438,0.063-1.736,0.189s-0.49,0.422-0.574,0.889s-0.126,1.377-0.126,2.73
			c0,1.354,0.042,2.263,0.126,2.73s0.275,0.763,0.574,0.889c0.299,0.126,0.877,0.189,1.736,0.189
			C95.85,209.489,96.427,209.426,96.721,209.3z"/>
	</g>
	<g>
		<path fill="#444444" d="M151.516,399.549v-8.147l-1.988,0.952v-1.162l2.338-1.273h0.854v9.631H151.516z"/>
		<path fill="#444444" d="M156.465,399.291c-0.49-0.248-0.798-0.684-0.924-1.31s-0.189-1.708-0.189-3.248s0.063-2.622,0.189-3.248
			c0.126-0.625,0.434-1.062,0.924-1.31c0.49-0.246,1.328-0.371,2.513-0.371c1.185,0,2.023,0.125,2.513,0.371
			c0.49,0.248,0.798,0.687,0.924,1.316c0.126,0.631,0.189,1.711,0.189,3.241c0,1.54-0.063,2.622-0.189,3.248
			s-0.434,1.062-0.924,1.31c-0.49,0.246-1.328,0.37-2.513,0.37C157.792,399.661,156.955,399.537,156.465,399.291z M160.707,398.353
			c0.294-0.126,0.483-0.423,0.567-0.89s0.126-1.376,0.126-2.729c0-1.353-0.042-2.263-0.126-2.729s-0.273-0.764-0.567-0.89
			s-0.871-0.188-1.729-0.188c-0.859,0-1.438,0.063-1.736,0.188s-0.49,0.423-0.574,0.89s-0.126,1.377-0.126,2.729
			c0,1.354,0.042,2.263,0.126,2.729s0.275,0.764,0.574,0.89s0.877,0.188,1.736,0.188
			C159.836,398.541,160.413,398.479,160.707,398.353z"/>
		<path fill="#444444" d="M165.873,399.291c-0.49-0.248-0.798-0.684-0.924-1.31s-0.189-1.708-0.189-3.248s0.063-2.622,0.189-3.248
			c0.126-0.625,0.434-1.062,0.924-1.31c0.49-0.246,1.328-0.371,2.513-0.371c1.185,0,2.023,0.125,2.513,0.371
			c0.49,0.248,0.798,0.687,0.924,1.316c0.126,0.631,0.189,1.711,0.189,3.241c0,1.54-0.063,2.622-0.189,3.248
			s-0.434,1.062-0.924,1.31c-0.49,0.246-1.328,0.37-2.513,0.37C167.2,399.661,166.363,399.537,165.873,399.291z M170.115,398.353
			c0.294-0.126,0.483-0.423,0.567-0.89s0.126-1.376,0.126-2.729c0-1.353-0.042-2.263-0.126-2.729s-0.273-0.764-0.567-0.89
			s-0.871-0.188-1.729-0.188c-0.859,0-1.438,0.063-1.736,0.188s-0.49,0.423-0.574,0.89s-0.126,1.377-0.126,2.729
			c0,1.354,0.042,2.263,0.126,2.729s0.275,0.764,0.574,0.89s0.877,0.188,1.736,0.188
			C169.244,398.541,169.821,398.479,170.115,398.353z"/>
	</g>
	<g>
		<path fill="#444444" d="M326.73,401.549v-8.147l-1.988,0.952v-1.162l2.338-1.273h0.854v9.631H326.73z"/>
		<path fill="#444444" d="M331.68,401.291c-0.49-0.248-0.799-0.684-0.924-1.31c-0.127-0.626-0.189-1.708-0.189-3.248
			s0.063-2.622,0.189-3.248c0.125-0.625,0.434-1.062,0.924-1.31c0.49-0.246,1.327-0.371,2.513-0.371
			c1.185,0,2.022,0.125,2.513,0.371c0.49,0.248,0.799,0.687,0.924,1.316c0.127,0.631,0.189,1.711,0.189,3.241
			c0,1.54-0.063,2.622-0.189,3.248c-0.125,0.626-0.434,1.062-0.924,1.31c-0.49,0.246-1.328,0.37-2.513,0.37
			C333.007,401.661,332.17,401.537,331.68,401.291z M335.922,400.353c0.293-0.126,0.482-0.423,0.566-0.89s0.126-1.376,0.126-2.729
			c0-1.353-0.042-2.263-0.126-2.729s-0.273-0.764-0.566-0.89c-0.295-0.126-0.871-0.188-1.729-0.188s-1.438,0.063-1.736,0.188
			s-0.489,0.423-0.573,0.89s-0.127,1.377-0.127,2.729c0,1.354,0.043,2.263,0.127,2.729s0.274,0.764,0.573,0.89
			s0.878,0.188,1.736,0.188S335.627,400.479,335.922,400.353z"/>
		<path fill="#444444" d="M341.087,401.291c-0.489-0.248-0.798-0.684-0.924-1.31s-0.188-1.708-0.188-3.248s0.063-2.622,0.188-3.248
			c0.126-0.625,0.435-1.062,0.924-1.31c0.49-0.246,1.327-0.371,2.513-0.371s2.023,0.125,2.514,0.371
			c0.49,0.248,0.798,0.687,0.924,1.316c0.126,0.631,0.189,1.711,0.189,3.241c0,1.54-0.063,2.622-0.189,3.248
			s-0.434,1.062-0.924,1.31c-0.49,0.246-1.328,0.37-2.514,0.37S341.577,401.537,341.087,401.291z M345.329,400.353
			c0.294-0.126,0.483-0.423,0.567-0.89s0.125-1.376,0.125-2.729c0-1.353-0.041-2.263-0.125-2.729s-0.273-0.764-0.567-0.89
			s-0.87-0.188-1.729-0.188c-0.858,0-1.438,0.063-1.736,0.188s-0.489,0.423-0.573,0.89s-0.126,1.377-0.126,2.729
			c0,1.354,0.042,2.263,0.126,2.729s0.274,0.764,0.573,0.89s0.878,0.188,1.736,0.188
			C344.459,400.541,345.035,400.479,345.329,400.353z"/>
	</g>
	<g>
		<path fill="#444444" d="M403.535,209.489c0.709,0,1.244-0.054,1.604-0.161c0.358-0.107,0.605-0.292,0.741-0.553
			c0.136-0.261,0.203-0.639,0.203-1.134c0-0.541-0.072-0.933-0.217-1.176c-0.146-0.242-0.401-0.403-0.771-0.483
			c-0.369-0.079-0.949-0.119-1.742-0.119c-0.672,0-1.504,0.061-2.492,0.182v-5.18h5.726v1.134h-4.62v2.87
			c0.672-0.084,1.387-0.126,2.143-0.126c0.887,0,1.559,0.1,2.016,0.301c0.457,0.201,0.768,0.495,0.932,0.882
			c0.162,0.387,0.244,0.912,0.244,1.575c0,0.793-0.1,1.41-0.301,1.848c-0.201,0.439-0.563,0.758-1.085,0.959
			s-1.283,0.301-2.282,0.301c-0.447,0-0.945-0.023-1.49-0.07c-0.547-0.046-1.011-0.107-1.394-0.182v-1.036
			C401.888,209.433,402.816,209.489,403.535,209.489z"/>
		<path fill="#444444" d="M410.472,210.238c-0.489-0.248-0.798-0.684-0.924-1.309s-0.188-1.708-0.188-3.248s0.063-2.623,0.188-3.248
			c0.126-0.625,0.435-1.062,0.924-1.309c0.49-0.247,1.327-0.371,2.513-0.371s2.023,0.124,2.514,0.371
			c0.49,0.248,0.798,0.686,0.924,1.316c0.126,0.63,0.189,1.71,0.189,3.241c0,1.54-0.063,2.623-0.189,3.248s-0.434,1.062-0.924,1.309
			c-0.49,0.247-1.328,0.371-2.514,0.371S410.962,210.485,410.472,210.238z M414.714,209.3c0.294-0.126,0.483-0.422,0.567-0.889
			s0.125-1.376,0.125-2.73c0-1.353-0.041-2.263-0.125-2.73s-0.273-0.763-0.567-0.889s-0.87-0.189-1.729-0.189
			c-0.858,0-1.438,0.063-1.736,0.189s-0.489,0.422-0.573,0.889s-0.126,1.377-0.126,2.73c0,1.354,0.042,2.263,0.126,2.73
			s0.274,0.763,0.573,0.889c0.299,0.126,0.878,0.189,1.736,0.189C413.844,209.489,414.42,209.426,414.714,209.3z"/>
	</g>
	<g>
		<path fill="#444444" d="M242.525,441.664c-0.464-0.248-0.765-0.672-0.9-1.271s-0.204-1.588-0.204-2.964
			c0-1.36,0.068-2.344,0.204-2.952c0.136-0.607,0.436-1.04,0.9-1.296c0.464-0.256,1.231-0.384,2.304-0.384
			c1.072,0,1.836,0.128,2.292,0.384s0.748,0.684,0.876,1.284c0.128,0.6,0.192,1.588,0.192,2.964c0,1.392-0.064,2.384-0.192,2.976
			s-0.42,1.012-0.876,1.26s-1.22,0.373-2.292,0.373C243.756,442.037,242.989,441.912,242.525,441.664z M246.221,440.608
			c0.24-0.104,0.4-0.368,0.48-0.792s0.12-1.22,0.12-2.388c0-1.2-0.032-2.005-0.096-2.412c-0.064-0.408-0.22-0.668-0.468-0.78
			c-0.249-0.111-0.724-0.168-1.428-0.168c-0.688,0-1.156,0.057-1.404,0.168c-0.249,0.112-0.412,0.381-0.492,0.805
			s-0.12,1.22-0.12,2.388s0.04,1.964,0.12,2.388s0.244,0.688,0.492,0.792c0.248,0.104,0.716,0.156,1.404,0.156
			S245.98,440.713,246.221,440.608z M243.821,449.5l10.8-16.512h1.535L245.381,449.5H243.821z M252.893,449.32
			c-0.465-0.248-0.764-0.672-0.9-1.271c-0.136-0.6-0.203-1.588-0.203-2.965c0-1.359,0.067-2.344,0.203-2.951
			c0.137-0.608,0.436-1.04,0.9-1.297c0.464-0.256,1.232-0.383,2.305-0.383c1.071,0,1.84,0.127,2.303,0.383
			c0.465,0.257,0.76,0.685,0.889,1.285c0.128,0.6,0.191,1.588,0.191,2.963c0,1.377-0.063,2.365-0.191,2.965
			c-0.129,0.6-0.424,1.023-0.889,1.271c-0.463,0.248-1.231,0.372-2.303,0.372C254.125,449.692,253.356,449.568,252.893,449.32z
			 M256.601,448.265c0.248-0.104,0.408-0.368,0.479-0.792c0.072-0.424,0.108-1.221,0.108-2.389c0-1.199-0.032-2.004-0.096-2.412
			c-0.064-0.407-0.22-0.668-0.468-0.779s-0.725-0.168-1.428-0.168c-0.689,0-1.156,0.057-1.404,0.168s-0.408,0.381-0.48,0.804
			c-0.072,0.425-0.107,1.22-0.107,2.388s0.035,1.965,0.107,2.389s0.232,0.688,0.48,0.792s0.715,0.155,1.404,0.155
			C255.885,448.42,256.353,448.369,256.601,448.265z"/>
	</g>
	<g>
		<path d="M258.279,255.879l-16.334-23.67h-0.18v23.67h-3.735v-30.96h3.96l16.11,23.13h0.18v-23.13h3.69v30.96H258.279z"/>
	</g>
	<path fill="none" stroke="#555555" stroke-miterlimit="10" d="M250,339l27.642-0.016c0,0,2.858-80.665,2.858-111.421
		C280.5,196.81,250,181,250,181s-30.5,15.81-30.5,46.563c0,30.756,2.858,111.421,2.858,111.421L250,339z"/>
</g>
<g id="Dummy" display="none">
	
		<text transform="matrix(1 0 0 1 187.375 411.4434)" display="inline" fill="#4DFCFF" font-family="'Saira-Regular'" font-size="50">-64.5</text>
</g>
<g id="size" display="none">
	<text transform="matrix(1 0 0 1 25.3022 422)" display="inline" fill="#FFFFFF" font-family="'Saira-Regular'" font-size="12">R450(250,250)</text>
	<text transform="matrix(1 0 0 1 55.3262 322)" display="inline" fill="#FFFFFF" font-family="'Saira-Regular'" font-size="12">R390(250,250)</text>
	<text transform="matrix(1 0 0 1 147.8604 435)" display="inline" fill="#FFFFFF" font-family="'Saira-Regular'" font-size="12">240deg</text>
	<text transform="matrix(1 0 0 1 307.2344 435)" display="inline" fill="#FFFFFF" font-family="'Saira-Regular'" font-size="12">300deg</text>
	
		<text transform="matrix(1 0 0 1 202.9277 280.5068)" display="inline" fill="#FFFFFF" font-family="'Saira-Regular'" font-size="12">50x40(250,240)</text>
	
		<text transform="matrix(1 0 0 1 121.7051 214.459)" display="inline" fill="#FFFFFF" font-family="'Saira-Regular'" font-size="12">55x44(180,240)</text>
	
		<text transform="matrix(1 0 0 1 286.5469 214.459)" display="inline" fill="#FFFFFF" font-family="'Saira-Regular'" font-size="12">55x44(320,240)</text>
	
		<text transform="matrix(1 0 0 1 201.2939 357.6191)" display="inline" fill="#FFFFFF" font-family="'Saira-Regular'" font-size="12">140x65(250,393)</text>
</g>
</svg>
