<?xml version="1.0" encoding="utf-8"?>
<!-- Generator: Adobe Illustrator 16.0.3, SVG Export Plug-In . SVG Version: 6.00 Build 0)  -->
<!DOCTYPE svg PUBLIC "-//W3C//DTD SVG 1.1//EN" "http://www.w3.org/Graphics/SVG/1.1/DTD/svg11.dtd">
<svg version="1.1" xmlns="http://www.w3.org/2000/svg" xmlns:xlink="http://www.w3.org/1999/xlink" x="0px" y="0px" width="500px"
	 height="500px" viewBox="0 0 500 500" enable-background="new 0 0 500 500" xml:space="preserve">
<g id="切り抜き">
	<path fill="#00080D" d="M0,0v500h500V0H0z M345,277.5c0,5.522-4.478,10-10,10H165c-5.522,0-10-4.478-10-10v-55
		c0-5.522,4.478-10,10-10h170c5.522,0,10,4.478,10,10V277.5z M362.516,444.883l-15.002-25.984C405.79,385.18,445,322.171,445,250
		c0-107.695-87.305-195-195-195S55,142.304,55,250c0,72.171,39.21,135.18,97.487,168.899l-15.002,25.984
		C70.243,405.977,25,333.273,25,250C25,125.736,125.736,25,250,25s225,100.736,225,225C475,333.273,429.758,405.977,362.516,444.883
		z"/>
</g>
<g id="Panel" display="none">
</g>
<g id="Mask">
	<path fill="#150000" d="M117.475,243.57c0,49.049,26.648,91.871,66.254,114.787l8.836-15.305
		c-34.325-19.861-57.419-56.975-57.419-99.482c0-63.432,51.422-114.854,114.854-114.854v-17.67
		C176.809,111.045,117.475,170.379,117.475,243.57z"/>
	<path fill="none" stroke="#F4FF32" stroke-miterlimit="10" d="M-82.34,582.34"/>
	<line fill="none" stroke="#940000" stroke-miterlimit="10" x1="159.986" y1="405.91" x2="152.487" y2="418.898"/>
	<line fill="none" stroke="#940000" stroke-miterlimit="10" x1="150.711" y1="412.024" x2="148.102" y2="416.283"/>
	<line fill="none" stroke="#940000" stroke-miterlimit="10" x1="146.507" y1="409.365" x2="143.786" y2="413.555"/>
	<line fill="none" stroke="#940000" stroke-miterlimit="10" x1="142.373" y1="406.599" x2="139.544" y2="410.715"/>
	<line fill="none" stroke="#940000" stroke-miterlimit="10" x1="138.313" y1="403.724" x2="135.377" y2="407.765"/>
	<line fill="none" stroke="#940000" stroke-miterlimit="10" x1="137.374" y1="396.777" x2="131.29" y2="404.707"/>
	<line fill="none" stroke="#940000" stroke-miterlimit="10" x1="130.426" y1="397.662" x2="127.282" y2="401.544"/>
	<line fill="none" stroke="#940000" stroke-miterlimit="10" x1="126.603" y1="394.479" x2="123.358" y2="398.278"/>
	<line fill="none" stroke="#940000" stroke-miterlimit="10" x1="122.864" y1="391.198" x2="119.521" y2="394.911"/>
	<line fill="none" stroke="#940000" stroke-miterlimit="10" x1="119.213" y1="387.821" x2="115.774" y2="391.445"/>
	<line fill="none" stroke="#940000" stroke-miterlimit="10" x1="122.7" y1="377.301" x2="112.096" y2="387.905"/>
	<line fill="none" stroke="#940000" stroke-miterlimit="10" x1="112.16" y1="380.807" x2="108.537" y2="384.244"/>
	<line fill="none" stroke="#940000" stroke-miterlimit="10" x1="108.787" y1="377.149" x2="105.074" y2="380.492"/>
	<line fill="none" stroke="#940000" stroke-miterlimit="10" x1="105.509" y1="373.407" x2="101.711" y2="376.65"/>
	<line fill="none" stroke="#940000" stroke-miterlimit="10" x1="102.333" y1="369.579" x2="98.451" y2="372.723"/>
	<line fill="none" stroke="#940000" stroke-miterlimit="10" x1="103.223" y1="362.627" x2="95.293" y2="368.711"/>
	<line fill="none" stroke="#940000" stroke-miterlimit="10" x1="96.282" y1="361.683" x2="92.242" y2="364.619"/>
	<line fill="none" stroke="#940000" stroke-miterlimit="10" x1="93.414" y1="357.619" x2="89.296" y2="360.449"/>
	<line fill="none" stroke="#940000" stroke-miterlimit="10" x1="90.652" y1="353.482" x2="86.461" y2="356.203"/>
	<line fill="none" stroke="#940000" stroke-miterlimit="10" x1="87.999" y1="349.275" x2="83.739" y2="351.886"/>
	<line fill="none" stroke="#940000" stroke-miterlimit="10" x1="94.09" y1="340.016" x2="81.103" y2="347.515"/>
	<line fill="none" stroke="#444444" stroke-miterlimit="10" x1="83.001" y1="340.674" x2="78.612" y2="343.057"/>
	<line fill="none" stroke="#444444" stroke-miterlimit="10" x1="80.689" y1="336.269" x2="76.238" y2="338.537"/>
	<line fill="none" stroke="#444444" stroke-miterlimit="10" x1="78.492" y1="331.806" x2="73.985" y2="333.955"/>
	<line fill="none" stroke="#444444" stroke-miterlimit="10" x1="76.415" y1="327.285" x2="71.851" y2="329.317"/>
	<line fill="none" stroke="#444444" stroke-miterlimit="10" x1="79.074" y1="320.801" x2="69.84" y2="324.625"/>
	<line fill="none" stroke="#444444" stroke-miterlimit="10" x1="72.615" y1="318.092" x2="67.952" y2="319.883"/>
	<line fill="none" stroke="#444444" stroke-miterlimit="10" x1="70.895" y1="313.425" x2="66.186" y2="315.093"/>
	<line fill="none" stroke="#444444" stroke-miterlimit="10" x1="69.298" y1="308.714" x2="64.546" y2="310.258"/>
	<line fill="none" stroke="#444444" stroke-miterlimit="10" x1="67.824" y1="303.964" x2="63.034" y2="305.383"/>
	<line fill="none" stroke="#444444" stroke-miterlimit="10" x1="76.105" y1="296.596" x2="61.619" y2="300.479"/>
	<line fill="none" stroke="#444444" stroke-miterlimit="10" x1="65.224" y1="294.362" x2="60.367" y2="295.527"/>
	<line fill="none" stroke="#444444" stroke-miterlimit="10" x1="64.13" y1="289.509" x2="59.244" y2="290.548"/>
	<line fill="none" stroke="#444444" stroke-miterlimit="10" x1="63.163" y1="284.629" x2="58.253" y2="285.539"/>
	<line fill="none" stroke="#444444" stroke-miterlimit="10" x1="62.327" y1="279.726" x2="57.393" y2="280.507"/>
	<line fill="none" stroke="#444444" stroke-miterlimit="10" x1="66.574" y1="274.149" x2="56.665" y2="275.454"/>
	<line fill="none" stroke="#444444" stroke-miterlimit="10" x1="61.035" y1="269.861" x2="56.068" y2="270.385"/>
	<line fill="none" stroke="#444444" stroke-miterlimit="10" x1="60.582" y1="264.908" x2="55.602" y2="265.301"/>
	<line fill="none" stroke="#444444" stroke-miterlimit="10" x1="60.259" y1="259.944" x2="55.269" y2="260.206"/>
	<line fill="none" stroke="#444444" stroke-miterlimit="10" x1="60.065" y1="254.975" x2="55.07" y2="255.105"/>
	<line fill="none" stroke="#444444" stroke-miterlimit="10" x1="69.97" y1="250.001" x2="54.973" y2="250.002"/>
	<line fill="none" stroke="#444444" stroke-miterlimit="10" x1="60.039" y1="245.027" x2="55.045" y2="244.896"/>
	<line fill="none" stroke="#444444" stroke-miterlimit="10" x1="60.238" y1="240.057" x2="55.249" y2="239.795"/>
	<line fill="none" stroke="#444444" stroke-miterlimit="10" x1="60.566" y1="235.092" x2="55.589" y2="234.701"/>
	<line fill="none" stroke="#444444" stroke-miterlimit="10" x1="61.028" y1="230.14" x2="56.06" y2="229.617"/>
	<line fill="none" stroke="#444444" stroke-miterlimit="10" x1="66.574" y1="225.854" x2="56.664" y2="224.548"/>
	<line fill="none" stroke="#444444" stroke-miterlimit="10" x1="62.333" y1="220.277" x2="57.4" y2="219.497"/>
	<line fill="none" stroke="#444444" stroke-miterlimit="10" x1="63.178" y1="215.375" x2="58.265" y2="214.466"/>
	<line fill="none" stroke="#444444" stroke-miterlimit="10" x1="64.151" y1="210.497" x2="59.263" y2="209.459"/>
	<line fill="none" stroke="#444444" stroke-miterlimit="10" x1="65.249" y1="205.646" x2="60.391" y2="204.48"/>
	<line fill="none" stroke="#444444" stroke-miterlimit="10" x1="76.104" y1="203.406" x2="61.618" y2="199.525"/>
	<line fill="none" stroke="#444444" stroke-miterlimit="10" x1="67.798" y1="196.031" x2="63.009" y2="194.611"/>
	<line fill="none" stroke="#444444" stroke-miterlimit="10" x1="69.277" y1="191.282" x2="64.526" y2="189.738"/>
	<line fill="none" stroke="#444444" stroke-miterlimit="10" x1="70.879" y1="186.57" x2="66.173" y2="184.905"/>
	<line fill="none" stroke="#444444" stroke-miterlimit="10" x1="72.607" y1="181.907" x2="67.944" y2="180.117"/>
	<line fill="none" stroke="#444444" stroke-miterlimit="10" x1="79.073" y1="179.203" x2="69.839" y2="175.377"/>
	<line fill="none" stroke="#444444" stroke-miterlimit="10" x1="76.421" y1="172.719" x2="71.857" y2="170.688"/>
	<line fill="none" stroke="#444444" stroke-miterlimit="10" x1="78.505" y1="168.202" x2="73.996" y2="166.052"/>
	<line fill="none" stroke="#444444" stroke-miterlimit="10" x1="80.708" y1="163.742" x2="76.254" y2="161.475"/>
	<line fill="none" stroke="#444444" stroke-miterlimit="10" x1="83.023" y1="159.341" x2="78.633" y2="156.957"/>
	<line fill="none" stroke="#444444" stroke-miterlimit="10" x1="94.088" y1="159.986" x2="81.101" y2="152.488"/>
	<line fill="none" stroke="#444444" stroke-miterlimit="10" x1="87.975" y1="150.713" x2="83.716" y2="148.103"/>
	<line fill="none" stroke="#444444" stroke-miterlimit="10" x1="90.632" y1="146.509" x2="86.443" y2="143.788"/>
	<line fill="none" stroke="#444444" stroke-miterlimit="10" x1="93.4" y1="142.372" x2="89.285" y2="139.546"/>
	<line fill="none" stroke="#444444" stroke-miterlimit="10" x1="96.275" y1="138.315" x2="92.234" y2="135.379"/>
	<line fill="none" stroke="#444444" stroke-miterlimit="10" x1="103.221" y1="137.377" x2="95.292" y2="131.291"/>
	<line fill="none" stroke="#444444" stroke-miterlimit="10" x1="102.337" y1="130.427" x2="98.455" y2="127.283"/>
	<line fill="none" stroke="#444444" stroke-miterlimit="10" x1="105.52" y1="126.604" x2="101.72" y2="123.359"/>
	<line fill="none" stroke="#444444" stroke-miterlimit="10" x1="108.801" y1="122.865" x2="105.086" y2="119.522"/>
	<line fill="none" stroke="#444444" stroke-miterlimit="10" x1="112.177" y1="119.213" x2="108.553" y2="115.775"/>
	<line fill="none" stroke="#444444" stroke-miterlimit="10" x1="122.698" y1="122.701" x2="112.094" y2="112.098"/>
	<line fill="none" stroke="#444444" stroke-miterlimit="10" x1="119.194" y1="112.161" x2="115.755" y2="108.538"/>
	<line fill="none" stroke="#444444" stroke-miterlimit="10" x1="122.848" y1="108.788" x2="119.505" y2="105.076"/>
	<line fill="none" stroke="#444444" stroke-miterlimit="10" x1="126.592" y1="105.509" x2="123.348" y2="101.714"/>
	<line fill="none" stroke="#444444" stroke-miterlimit="10" x1="130.418" y1="102.334" x2="127.276" y2="98.451"/>
	<line fill="none" stroke="#444444" stroke-miterlimit="10" x1="137.372" y1="103.226" x2="131.288" y2="95.295"/>
	<line fill="none" stroke="#444444" stroke-miterlimit="10" x1="138.316" y1="96.283" x2="135.379" y2="92.242"/>
	<line fill="none" stroke="#444444" stroke-miterlimit="10" x1="142.38" y1="93.414" x2="139.549" y2="89.297"/>
	<line fill="none" stroke="#444444" stroke-miterlimit="10" x1="146.517" y1="90.652" x2="143.794" y2="86.463"/>
	<line fill="none" stroke="#444444" stroke-miterlimit="10" x1="150.724" y1="87.999" x2="148.113" y2="83.74"/>
	<line fill="none" stroke="#444444" stroke-miterlimit="10" x1="159.983" y1="94.091" x2="152.485" y2="81.104"/>
	<line fill="none" stroke="#444444" stroke-miterlimit="10" x1="159.326" y1="83.003" x2="156.943" y2="78.613"/>
	<line fill="none" stroke="#444444" stroke-miterlimit="10" x1="163.729" y1="80.69" x2="161.46" y2="76.24"/>
	<line fill="none" stroke="#444444" stroke-miterlimit="10" x1="168.195" y1="78.492" x2="166.043" y2="73.987"/>
	<line fill="none" stroke="#444444" stroke-miterlimit="10" x1="172.712" y1="76.416" x2="170.681" y2="71.852"/>
	<line fill="none" stroke="#444444" stroke-miterlimit="10" x1="179.197" y1="79.076" x2="175.374" y2="69.842"/>
	<line fill="none" stroke="#444444" stroke-miterlimit="10" x1="181.907" y1="72.615" x2="180.116" y2="67.952"/>
	<line fill="none" stroke="#444444" stroke-miterlimit="10" x1="186.574" y1="70.896" x2="184.906" y2="66.187"/>
	<line fill="none" stroke="#444444" stroke-miterlimit="10" x1="191.285" y1="69.299" x2="189.739" y2="64.547"/>
	<line fill="none" stroke="#444444" stroke-miterlimit="10" x1="196.036" y1="67.825" x2="194.616" y2="63.035"/>
	<line fill="none" stroke="#444444" stroke-miterlimit="10" x1="203.403" y1="76.105" x2="199.521" y2="61.621"/>
	<line fill="none" stroke="#444444" stroke-miterlimit="10" x1="205.638" y1="65.225" x2="204.472" y2="60.369"/>
	<line fill="none" stroke="#444444" stroke-miterlimit="10" x1="210.489" y1="64.131" x2="209.45" y2="59.245"/>
	<line fill="none" stroke="#444444" stroke-miterlimit="10" x1="215.372" y1="63.164" x2="214.459" y2="58.256"/>
	<line fill="none" stroke="#444444" stroke-miterlimit="10" x1="220.272" y1="62.327" x2="219.492" y2="57.393"/>
	<line fill="none" stroke="#444444" stroke-miterlimit="10" x1="225.848" y1="66.576" x2="224.545" y2="56.666"/>
	<line fill="none" stroke="#444444" stroke-miterlimit="10" x1="230.138" y1="61.036" x2="229.615" y2="56.068"/>
	<line fill="none" stroke="#444444" stroke-miterlimit="10" x1="235.091" y1="60.583" x2="234.698" y2="55.603"/>
	<line fill="none" stroke="#444444" stroke-miterlimit="10" x1="240.055" y1="60.26" x2="239.792" y2="55.27"/>
	<line fill="none" stroke="#444444" stroke-miterlimit="10" x1="245.025" y1="60.066" x2="244.893" y2="55.072"/>
	<line fill="none" stroke="#444444" stroke-miterlimit="10" x1="249.853" y1="88.517" x2="249.846" y2="24.935"/>
	<line fill="none" stroke="#444444" stroke-miterlimit="10" x1="254.973" y1="60.039" x2="255.104" y2="55.048"/>
	<line fill="none" stroke="#444444" stroke-miterlimit="10" x1="259.941" y1="60.238" x2="260.203" y2="55.25"/>
	<line fill="none" stroke="#444444" stroke-miterlimit="10" x1="264.908" y1="60.568" x2="265.297" y2="55.591"/>
	<line fill="none" stroke="#444444" stroke-miterlimit="10" x1="269.857" y1="61.028" x2="270.382" y2="56.06"/>
	<line fill="none" stroke="#444444" stroke-miterlimit="10" x1="274.145" y1="66.575" x2="275.451" y2="56.666"/>
	<line fill="none" stroke="#444444" stroke-miterlimit="10" x1="279.723" y1="62.334" x2="280.502" y2="57.4"/>
	<line fill="none" stroke="#444444" stroke-miterlimit="10" x1="284.623" y1="63.179" x2="285.533" y2="58.267"/>
	<line fill="none" stroke="#444444" stroke-miterlimit="10" x1="289.502" y1="64.151" x2="290.539" y2="59.264"/>
	<line fill="none" stroke="#444444" stroke-miterlimit="10" x1="294.354" y1="65.251" x2="295.518" y2="60.393"/>
	<line fill="none" stroke="#444444" stroke-miterlimit="10" x1="296.594" y1="76.105" x2="300.473" y2="61.62"/>
	<line fill="none" stroke="#444444" stroke-miterlimit="10" x1="303.969" y1="67.799" x2="305.387" y2="63.012"/>
	<line fill="none" stroke="#444444" stroke-miterlimit="10" x1="308.717" y1="69.277" x2="310.26" y2="64.527"/>
	<line fill="none" stroke="#444444" stroke-miterlimit="10" x1="313.428" y1="70.882" x2="315.092" y2="66.174"/>
	<line fill="none" stroke="#444444" stroke-miterlimit="10" x1="318.09" y1="72.607" x2="319.883" y2="67.943"/>
	<line fill="none" stroke="#444444" stroke-miterlimit="10" x1="320.795" y1="79.074" x2="324.623" y2="69.841"/>
	<line fill="none" stroke="#444444" stroke-miterlimit="10" x1="327.281" y1="76.422" x2="329.311" y2="71.857"/>
	<line fill="none" stroke="#444444" stroke-miterlimit="10" x1="331.797" y1="78.506" x2="333.947" y2="73.997"/>
	<line fill="none" stroke="#444444" stroke-miterlimit="10" x1="336.257" y1="80.708" x2="338.523" y2="76.256"/>
	<line fill="none" stroke="#444444" stroke-miterlimit="10" x1="340.658" y1="83.025" x2="343.041" y2="78.635"/>
	<line fill="none" stroke="#444444" stroke-miterlimit="10" x1="340.014" y1="94.091" x2="347.51" y2="81.103"/>
	<line fill="none" stroke="#444444" stroke-miterlimit="10" x1="349.287" y1="87.976" x2="351.896" y2="83.719"/>
	<line fill="none" stroke="#444444" stroke-miterlimit="10" x1="353.49" y1="90.633" x2="356.211" y2="86.444"/>
	<line fill="none" stroke="#444444" stroke-miterlimit="10" x1="357.625" y1="93.401" x2="360.451" y2="89.285"/>
	<line fill="none" stroke="#444444" stroke-miterlimit="10" x1="361.682" y1="96.275" x2="364.621" y2="92.234"/>
	<line fill="none" stroke="#444444" stroke-miterlimit="10" x1="362.621" y1="103.222" x2="368.709" y2="95.294"/>
	<line fill="none" stroke="#444444" stroke-miterlimit="10" x1="369.573" y1="102.339" x2="372.715" y2="98.455"/>
	<line fill="none" stroke="#444444" stroke-miterlimit="10" x1="373.396" y1="105.521" x2="376.641" y2="101.722"/>
	<line fill="none" stroke="#444444" stroke-miterlimit="10" x1="377.133" y1="108.802" x2="380.475" y2="105.088"/>
	<line fill="none" stroke="#444444" stroke-miterlimit="10" x1="380.785" y1="112.18" x2="384.223" y2="108.555"/>
	<line fill="none" stroke="#444444" stroke-miterlimit="10" x1="377.299" y1="122.701" x2="387.9" y2="112.096"/>
	<line fill="none" stroke="#444444" stroke-miterlimit="10" x1="387.839" y1="119.193" x2="391.461" y2="115.758"/>
	<line fill="none" stroke="#444444" stroke-miterlimit="10" x1="391.211" y1="122.849" x2="394.924" y2="119.507"/>
	<line fill="none" stroke="#444444" stroke-miterlimit="10" x1="394.488" y1="126.594" x2="398.283" y2="123.349"/>
	<line fill="none" stroke="#444444" stroke-miterlimit="10" x1="397.662" y1="130.419" x2="401.549" y2="127.276"/>
	<line fill="none" stroke="#444444" stroke-miterlimit="10" x1="396.773" y1="137.372" x2="404.705" y2="131.29"/>
	<line fill="none" stroke="#444444" stroke-miterlimit="10" x1="403.717" y1="138.318" x2="407.756" y2="135.38"/>
	<line fill="none" stroke="#444444" stroke-miterlimit="10" x1="406.586" y1="142.381" x2="410.703" y2="139.551"/>
	<line fill="none" stroke="#444444" stroke-miterlimit="10" x1="409.346" y1="146.518" x2="413.535" y2="143.795"/>
	<line fill="none" stroke="#444444" stroke-miterlimit="10" x1="412" y1="150.726" x2="416.258" y2="148.113"/>
	<line fill="none" stroke="#444444" stroke-miterlimit="10" x1="405.908" y1="159.986" x2="418.895" y2="152.486"/>
	<line fill="none" stroke="#444444" stroke-miterlimit="10" x1="416.998" y1="159.326" x2="421.385" y2="156.945"/>
	<line fill="none" stroke="#444444" stroke-miterlimit="10" x1="419.309" y1="163.729" x2="423.76" y2="161.463"/>
	<line fill="none" stroke="#444444" stroke-miterlimit="10" x1="421.505" y1="168.195" x2="426.01" y2="166.043"/>
	<line fill="none" stroke="#444444" stroke-miterlimit="10" x1="423.58" y1="172.712" x2="428.148" y2="170.682"/>
	<line fill="none" stroke="#444444" stroke-miterlimit="10" x1="420.922" y1="179.197" x2="430.158" y2="175.376"/>
	<line fill="none" stroke="#444444" stroke-miterlimit="10" x1="427.385" y1="181.909" x2="432.047" y2="180.115"/>
	<line fill="none" stroke="#444444" stroke-miterlimit="10" x1="429.104" y1="186.576" x2="433.813" y2="184.907"/>
	<line fill="none" stroke="#444444" stroke-miterlimit="10" x1="430.699" y1="191.285" x2="435.451" y2="189.74"/>
	<line fill="none" stroke="#444444" stroke-miterlimit="10" x1="432.174" y1="196.037" x2="436.963" y2="194.616"/>
	<line fill="none" stroke="#444444" stroke-miterlimit="10" x1="423.893" y1="203.406" x2="438.379" y2="199.522"/>
	<line fill="none" stroke="#444444" stroke-miterlimit="10" x1="434.775" y1="205.639" x2="439.629" y2="204.475"/>
	<line fill="none" stroke="#444444" stroke-miterlimit="10" x1="435.867" y1="210.49" x2="440.754" y2="209.452"/>
	<line fill="none" stroke="#444444" stroke-miterlimit="10" x1="436.834" y1="215.371" x2="441.742" y2="214.459"/>
	<line fill="none" stroke="#444444" stroke-miterlimit="10" x1="437.67" y1="220.271" x2="442.607" y2="219.493"/>
	<line fill="none" stroke="#444444" stroke-miterlimit="10" x1="433.423" y1="225.848" x2="443.334" y2="224.547"/>
	<line fill="none" stroke="#444444" stroke-miterlimit="10" x1="438.963" y1="230.141" x2="443.932" y2="229.614"/>
	<line fill="none" stroke="#444444" stroke-miterlimit="10" x1="439.416" y1="235.094" x2="444.397" y2="234.7"/>
	<line fill="none" stroke="#444444" stroke-miterlimit="10" x1="439.738" y1="240.055" x2="444.729" y2="239.792"/>
	<line fill="none" stroke="#444444" stroke-miterlimit="10" x1="439.934" y1="245.026" x2="444.927" y2="244.894"/>
	<line fill="none" stroke="#444444" stroke-miterlimit="10" x1="430.027" y1="250.001" x2="445.025" y2="249.999"/>
	<line fill="none" stroke="#444444" stroke-miterlimit="10" x1="439.961" y1="254.974" x2="444.951" y2="255.105"/>
	<line fill="none" stroke="#444444" stroke-miterlimit="10" x1="439.76" y1="259.943" x2="444.748" y2="260.205"/>
	<line fill="none" stroke="#444444" stroke-miterlimit="10" x1="439.43" y1="264.907" x2="444.407" y2="265.297"/>
	<line fill="none" stroke="#444444" stroke-miterlimit="10" x1="438.969" y1="269.857" x2="443.939" y2="270.384"/>
	<line fill="none" stroke="#444444" stroke-miterlimit="10" x1="433.424" y1="274.145" x2="443.334" y2="275.453"/>
	<line fill="none" stroke="#444444" stroke-miterlimit="10" x1="437.664" y1="279.725" x2="442.6" y2="280.502"/>
	<line fill="none" stroke="#444444" stroke-miterlimit="10" x1="436.82" y1="284.627" x2="441.733" y2="285.535"/>
	<line fill="none" stroke="#444444" stroke-miterlimit="10" x1="435.848" y1="289.502" x2="440.735" y2="290.539"/>
	<line fill="none" stroke="#444444" stroke-miterlimit="10" x1="434.748" y1="294.354" x2="439.606" y2="295.519"/>
	<line fill="none" stroke="#444444" stroke-miterlimit="10" x1="423.893" y1="296.596" x2="438.381" y2="300.476"/>
	<line fill="none" stroke="#444444" stroke-miterlimit="10" x1="432.201" y1="303.971" x2="436.986" y2="305.389"/>
	<line fill="none" stroke="#444444" stroke-miterlimit="10" x1="430.721" y1="308.719" x2="435.471" y2="310.263"/>
	<line fill="none" stroke="#444444" stroke-miterlimit="10" x1="429.117" y1="313.428" x2="433.824" y2="315.092"/>
	<line fill="none" stroke="#444444" stroke-miterlimit="10" x1="427.391" y1="318.09" x2="432.055" y2="319.885"/>
	<line fill="none" stroke="#444444" stroke-miterlimit="10" x1="420.925" y1="320.796" x2="430.158" y2="324.625"/>
	<line fill="none" stroke="#444444" stroke-miterlimit="10" x1="423.576" y1="327.283" x2="428.143" y2="329.312"/>
	<line fill="none" stroke="#444444" stroke-miterlimit="10" x1="421.492" y1="331.8" x2="426.003" y2="333.949"/>
	<line fill="none" stroke="#444444" stroke-miterlimit="10" x1="419.291" y1="336.257" x2="423.744" y2="338.524"/>
	<line fill="none" stroke="#444444" stroke-miterlimit="10" x1="416.973" y1="340.66" x2="421.365" y2="343.041"/>
	<line fill="none" stroke="#940000" stroke-miterlimit="10" x1="405.908" y1="340.015" x2="418.898" y2="347.513"/>
	<line fill="none" stroke="#940000" stroke-miterlimit="10" x1="412.023" y1="349.289" x2="416.279" y2="351.897"/>
	<line fill="none" stroke="#940000" stroke-miterlimit="10" x1="409.365" y1="353.492" x2="413.554" y2="356.213"/>
	<line fill="none" stroke="#940000" stroke-miterlimit="10" x1="406.598" y1="357.626" x2="410.713" y2="360.451"/>
	<line fill="none" stroke="#940000" stroke-miterlimit="10" x1="403.723" y1="361.682" x2="407.764" y2="364.623"/>
	<line fill="none" stroke="#940000" stroke-miterlimit="10" x1="396.777" y1="362.622" x2="404.705" y2="368.711"/>
	<line fill="none" stroke="#940000" stroke-miterlimit="10" x1="397.659" y1="369.575" x2="401.545" y2="372.716"/>
	<line fill="none" stroke="#940000" stroke-miterlimit="10" x1="394.477" y1="373.398" x2="398.278" y2="376.642"/>
	<line fill="none" stroke="#940000" stroke-miterlimit="10" x1="391.197" y1="377.134" x2="394.912" y2="380.477"/>
	<line fill="none" stroke="#940000" stroke-miterlimit="10" x1="387.818" y1="380.787" x2="391.445" y2="384.224"/>
	<line fill="none" stroke="#940000" stroke-miterlimit="10" x1="377.299" y1="377.3" x2="387.904" y2="387.904"/>
	<line fill="none" stroke="#940000" stroke-miterlimit="10" x1="380.805" y1="387.841" x2="384.24" y2="391.462"/>
	<line fill="none" stroke="#940000" stroke-miterlimit="10" x1="377.149" y1="391.213" x2="380.49" y2="394.925"/>
	<line fill="none" stroke="#940000" stroke-miterlimit="10" x1="373.406" y1="394.489" x2="376.65" y2="398.283"/>
	<line fill="none" stroke="#940000" stroke-miterlimit="10" x1="369.579" y1="397.663" x2="372.721" y2="401.55"/>
	<line fill="none" stroke="#940000" stroke-miterlimit="10" x1="362.627" y1="396.773" x2="368.709" y2="404.707"/>
	<line fill="none" stroke="#940000" stroke-miterlimit="10" x1="361.68" y1="403.718" x2="364.619" y2="407.758"/>
	<line fill="none" stroke="#940000" stroke-miterlimit="10" x1="357.615" y1="406.588" x2="360.448" y2="410.704"/>
	<line fill="none" stroke="#940000" stroke-miterlimit="10" x1="353.48" y1="409.347" x2="356.205" y2="413.537"/>
	<line fill="none" stroke="#940000" stroke-miterlimit="10" x1="349.271" y1="412.001" x2="351.887" y2="416.259"/>
	<line fill="none" stroke="#940000" stroke-miterlimit="10" x1="340.014" y1="405.91" x2="347.514" y2="418.897"/>
	<path fill="#00102A" d="M249.85,111.045v17.67c63.434,0,114.855,51.422,114.855,114.854c0,42.508-23.095,79.621-57.42,99.482
		l8.836,15.305c39.606-22.916,66.254-65.738,66.254-114.787C382.375,170.379,323.041,111.045,249.85,111.045z"/>
	<g>
		<path fill="none" d="M191.492,345.617C156.525,325.385,133,287.58,133,244.278c0-64.617,52.383-117,117-117"/>
		<text transform="matrix(-0.1105 -0.9939 0.9939 -0.1105 134.478 264.1484)"><tspan x="0" y="0" fill="#555555" font-family="'Saira-Regular'" font-size="20">A</tspan><tspan x="13.417" y="0.161" fill="#555555" font-family="'Saira-Regular'" font-size="20" rotate="4.338"> </tspan><tspan x="17.873" y="0.351" fill="#555555" font-family="'Saira-Regular'" font-size="20" rotate="8.374">S</tspan><tspan x="30.073" y="2.28" fill="#555555" font-family="'Saira-Regular'" font-size="20" rotate="12.46"> </tspan><tspan x="34.447" y="3.117" fill="#555555" font-family="'Saira-Regular'" font-size="20" rotate="16.337">T</tspan><tspan x="45.386" y="6.44" fill="#555555" font-family="'Saira-Regular'" font-size="20" rotate="20.26"> </tspan><tspan x="49.616" y="7.854" fill="#555555" font-family="'Saira-Regular'" font-size="20" rotate="24.276">E</tspan><tspan x="60.351" y="12.829" fill="#555555" font-family="'Saira-Regular'" font-size="20" rotate="28.293"> </tspan><tspan x="64.359" y="14.781" fill="#555555" font-family="'Saira-Regular'" font-size="20" rotate="32.682">R</tspan><tspan x="75.533" y="22.14" fill="#555555" font-family="'Saira-Regular'" font-size="20" rotate="37.055"> </tspan><tspan x="79.209" y="24.653" fill="#555555" font-family="'Saira-Regular'" font-size="20" rotate="41.655">N</tspan></text>
		<path fill="none" d="M250,127.278c64.617,0,117,52.383,117,117c0,43.302-23.525,81.107-58.492,101.339"/>
		<text transform="matrix(0.5404 0.8414 -0.8414 0.5404 344.8242 175.3867)"><tspan x="0" y="0" fill="#555555" font-family="'Saira-Regular'" font-size="20">A</tspan><tspan x="13.425" y="0.162" fill="#555555" font-family="'Saira-Regular'" font-size="20" rotate="4.38"> </tspan><tspan x="17.873" y="0.29" fill="#555555" font-family="'Saira-Regular'" font-size="20" rotate="9.003">H</tspan><tspan x="32.03" y="2.725" fill="#555555" font-family="'Saira-Regular'" font-size="20" rotate="13.635"> </tspan><tspan x="36.396" y="3.643" fill="#555555" font-family="'Saira-Regular'" font-size="20" rotate="17.655">E</tspan><tspan x="47.661" y="7.355" fill="#555555" font-family="'Saira-Regular'" font-size="20" rotate="21.681"> </tspan><tspan x="51.839" y="8.822" fill="#555555" font-family="'Saira-Regular'" font-size="20" rotate="26.05">A</tspan><tspan x="63.829" y="14.862" fill="#555555" font-family="'Saira-Regular'" font-size="20" rotate="30.394"> </tspan><tspan x="67.782" y="16.973" fill="#555555" font-family="'Saira-Regular'" font-size="20" rotate="34.729">D</tspan></text>
	</g>
	<text transform="matrix(1 0 0 1 245.1455 103.6211)" fill="#444444" font-family="'Saira-Regular'" font-size="14">0</text>
	<text transform="matrix(1 0 0 1 148.0254 401.5488)" fill="#940000" font-family="'Saira-Regular'" font-size="14">2500</text>
	<g>
		<text transform="matrix(1 0 0 1 318.2402 401.5488)" fill="#940000" font-family="'Saira-Regular'" font-size="14">2500</text>
	</g>
	<text transform="matrix(1 0 0 1 320.1992 111.0454)" fill="#444444" font-family="'Saira-Regular'" font-size="14">500</text>
	<text transform="matrix(1 0 0 1 148.8462 111.0454)" fill="#444444" font-family="'Saira-Regular'" font-size="14">500</text>
	<text transform="matrix(1 0 0 1 371.1523 170.6816)" fill="#444444" font-family="'Saira-Regular'" font-size="14">1000</text>
	<text transform="matrix(1 0 0 1 99.0039 170.6816)" fill="#444444" font-family="'Saira-Regular'" font-size="14">1000</text>
	<text transform="matrix(1 0 0 1 392.9785 255.1055)" fill="#444444" font-family="'Saira-Regular'" font-size="14">1500</text>
	<text transform="matrix(1 0 0 1 71.2075 255.1055)" fill="#444444" font-family="'Saira-Regular'" font-size="14">1500</text>
	<g>
		<text transform="matrix(1 0 0 1 371.25 336.2568)" fill="#940000" font-family="'Saira-Regular'" font-size="14">2000</text>
	</g>
	<text transform="matrix(1 0 0 1 97.3735 336.2568)" fill="#940000" font-family="'Saira-Regular'" font-size="14">2000</text>
</g>
<g id="Dummy" display="none">
	
		<text transform="matrix(1 0 0 1 174.8501 271.1895)" display="inline" fill="#4DFCFF" font-family="'Saira-Regular'" font-size="60">-64.5</text>
	
		<text transform="matrix(1 0 0 1 222.231 320.7969)" display="inline" fill="#444444" font-family="'Saira-Regular'" font-size="30">rpm</text>
</g>
<g id="size" display="none">
	<text transform="matrix(1 0 0 1 25.3022 422)" display="inline" fill="#FFFFFF" font-family="'Saira-Regular'" font-size="12">R450(250,250)</text>
	<text transform="matrix(1 0 0 1 55.3262 322)" display="inline" fill="#FFFFFF" font-family="'Saira-Regular'" font-size="12">R390(250,250)</text>
	<text transform="matrix(1 0 0 1 147.8604 435)" display="inline" fill="#FFFFFF" font-family="'Saira-Regular'" font-size="12">240deg</text>
	<text transform="matrix(1 0 0 1 307.2344 435)" display="inline" fill="#FFFFFF" font-family="'Saira-Regular'" font-size="12">300deg</text>
	<text transform="matrix(1 0 0 1 205.8823 304)" display="inline" fill="#FFFFFF" font-family="'Saira-Regular'" font-size="12">190x75(250,250)</text>
</g>
</svg>
