<?xml version="1.0" encoding="utf-8"?>
<!-- Generator: Adobe Illustrator 16.0.3, SVG Export Plug-In . SVG Version: 6.00 Build 0)  -->
<!DOCTYPE svg PUBLIC "-//W3C//DTD SVG 1.1//EN" "http://www.w3.org/Graphics/SVG/1.1/DTD/svg11.dtd">
<svg version="1.1" xmlns="http://www.w3.org/2000/svg" xmlns:xlink="http://www.w3.org/1999/xlink" x="0px" y="0px" width="500px"
	 height="500px" viewBox="0 0 500 500" enable-background="new 0 0 500 500" xml:space="preserve">
<g id="Panel" display="none">
</g>
<g id="åˆ‡ã‚ŠæŠœã">
	<path fill="#00080D" d="M0,0v500h500V0H0z M345,277.5c0,5.522-4.478,10-10,10H165c-5.522,0-10-4.478-10-10v-55
		c0-5.522,4.478-10,10-10h170c5.522,0,10,4.478,10,10V277.5z M362.516,444.883l-15.002-25.984C405.79,385.18,445,322.171,445,250
		c0-107.695-87.305-195-195-195S55,142.304,55,250c0,72.171,39.21,135.18,97.487,168.899l-15.002,25.984
		C70.243,405.977,25,333.273,25,250C25,125.736,125.736,25,250,25s225,100.736,225,225C475,333.273,429.758,405.977,362.516,444.883
		z"/>
</g>
<g id="Mask">
	<path fill="#150000" d="M117.475,243.57c0,49.049,26.648,91.871,66.254,114.787l8.836-15.305
		c-34.325-19.861-57.419-56.975-57.419-99.482c0-63.432,51.422-114.854,114.854-114.854v-17.67
		C176.809,111.045,117.475,170.379,117.475,243.57z"/>
	<path fill="none" stroke="#F4FF32" stroke-miterlimit="10" d="M-82.34,582.34"/>
	<line fill="none" stroke="#444444" stroke-miterlimit="10" x1="159.986" y1="405.91" x2="152.487" y2="418.898"/>
	<line fill="none" stroke="#444444" stroke-miterlimit="10" x1="150.711" y1="412.024" x2="148.102" y2="416.283"/>
	<line fill="none" stroke="#444444" stroke-miterlimit="10" x1="146.507" y1="409.365" x2="143.786" y2="413.555"/>
	<line fill="none" stroke="#444444" stroke-miterlimit="10" x1="142.373" y1="406.599" x2="139.544" y2="410.715"/>
	<line fill="none" stroke="#444444" stroke-miterlimit="10" x1="138.313" y1="403.724" x2="135.377" y2="407.765"/>
	<line fill="none" stroke="#444444" stroke-miterlimit="10" x1="137.374" y1="396.777" x2="131.29" y2="404.707"/>
	<line fill="none" stroke="#444444" stroke-miterlimit="10" x1="130.426" y1="397.662" x2="127.282" y2="401.544"/>
	<line fill="none" stroke="#444444" stroke-miterlimit="10" x1="126.603" y1="394.479" x2="123.358" y2="398.278"/>
	<line fill="none" stroke="#444444" stroke-miterlimit="10" x1="122.864" y1="391.198" x2="119.521" y2="394.911"/>
	<line fill="none" stroke="#444444" stroke-miterlimit="10" x1="119.213" y1="387.821" x2="115.774" y2="391.445"/>
	<line fill="none" stroke="#444444" stroke-miterlimit="10" x1="122.7" y1="377.301" x2="112.096" y2="387.905"/>
	<line fill="none" stroke="#444444" stroke-miterlimit="10" x1="112.16" y1="380.807" x2="108.537" y2="384.244"/>
	<line fill="none" stroke="#444444" stroke-miterlimit="10" x1="108.787" y1="377.149" x2="105.074" y2="380.492"/>
	<line fill="none" stroke="#444444" stroke-miterlimit="10" x1="105.509" y1="373.407" x2="101.711" y2="376.65"/>
	<line fill="none" stroke="#444444" stroke-miterlimit="10" x1="102.333" y1="369.579" x2="98.451" y2="372.723"/>
	<line fill="none" stroke="#444444" stroke-miterlimit="10" x1="103.223" y1="362.627" x2="95.293" y2="368.711"/>
	<line fill="none" stroke="#444444" stroke-miterlimit="10" x1="96.282" y1="361.683" x2="92.242" y2="364.619"/>
	<line fill="none" stroke="#444444" stroke-miterlimit="10" x1="93.414" y1="357.619" x2="89.296" y2="360.449"/>
	<line fill="none" stroke="#444444" stroke-miterlimit="10" x1="90.652" y1="353.482" x2="86.461" y2="356.203"/>
	<line fill="none" stroke="#444444" stroke-miterlimit="10" x1="87.999" y1="349.275" x2="83.739" y2="351.886"/>
	<line fill="none" stroke="#444444" stroke-miterlimit="10" x1="94.09" y1="340.016" x2="81.103" y2="347.515"/>
	<line fill="none" stroke="#444444" stroke-miterlimit="10" x1="83.001" y1="340.674" x2="78.612" y2="343.057"/>
	<line fill="none" stroke="#444444" stroke-miterlimit="10" x1="80.689" y1="336.269" x2="76.238" y2="338.537"/>
	<line fill="none" stroke="#444444" stroke-miterlimit="10" x1="78.492" y1="331.806" x2="73.985" y2="333.955"/>
	<line fill="none" stroke="#444444" stroke-miterlimit="10" x1="76.415" y1="327.285" x2="71.851" y2="329.317"/>
	<line fill="none" stroke="#444444" stroke-miterlimit="10" x1="79.074" y1="320.801" x2="69.84" y2="324.625"/>
	<line fill="none" stroke="#444444" stroke-miterlimit="10" x1="72.615" y1="318.092" x2="67.952" y2="319.883"/>
	<line fill="none" stroke="#444444" stroke-miterlimit="10" x1="70.895" y1="313.425" x2="66.186" y2="315.093"/>
	<line fill="none" stroke="#444444" stroke-miterlimit="10" x1="69.298" y1="308.714" x2="64.546" y2="310.258"/>
	<line fill="none" stroke="#444444" stroke-miterlimit="10" x1="67.824" y1="303.964" x2="63.034" y2="305.383"/>
	<line fill="none" stroke="#444444" stroke-miterlimit="10" x1="76.105" y1="296.596" x2="61.619" y2="300.479"/>
	<line fill="none" stroke="#444444" stroke-miterlimit="10" x1="65.224" y1="294.362" x2="60.367" y2="295.527"/>
	<line fill="none" stroke="#444444" stroke-miterlimit="10" x1="64.13" y1="289.509" x2="59.244" y2="290.548"/>
	<line fill="none" stroke="#444444" stroke-miterlimit="10" x1="63.163" y1="284.629" x2="58.253" y2="285.539"/>
	<line fill="none" stroke="#444444" stroke-miterlimit="10" x1="62.327" y1="279.726" x2="57.393" y2="280.507"/>
	<line fill="none" stroke="#444444" stroke-miterlimit="10" x1="66.574" y1="274.149" x2="56.665" y2="275.454"/>
	<line fill="none" stroke="#444444" stroke-miterlimit="10" x1="61.035" y1="269.861" x2="56.068" y2="270.385"/>
	<line fill="none" stroke="#444444" stroke-miterlimit="10" x1="60.582" y1="264.908" x2="55.602" y2="265.301"/>
	<line fill="none" stroke="#444444" stroke-miterlimit="10" x1="60.259" y1="259.944" x2="55.269" y2="260.206"/>
	<line fill="none" stroke="#444444" stroke-miterlimit="10" x1="60.065" y1="254.975" x2="55.07" y2="255.105"/>
	<line fill="none" stroke="#444444" stroke-miterlimit="10" x1="69.97" y1="250.001" x2="54.973" y2="250.002"/>
	<line fill="none" stroke="#444444" stroke-miterlimit="10" x1="60.039" y1="245.027" x2="55.045" y2="244.896"/>
	<line fill="none" stroke="#444444" stroke-miterlimit="10" x1="60.238" y1="240.057" x2="55.249" y2="239.795"/>
	<line fill="none" stroke="#444444" stroke-miterlimit="10" x1="60.566" y1="235.092" x2="55.589" y2="234.701"/>
	<line fill="none" stroke="#444444" stroke-miterlimit="10" x1="61.028" y1="230.14" x2="56.06" y2="229.617"/>
	<line fill="none" stroke="#444444" stroke-miterlimit="10" x1="66.574" y1="225.854" x2="56.664" y2="224.548"/>
	<line fill="none" stroke="#444444" stroke-miterlimit="10" x1="62.333" y1="220.277" x2="57.4" y2="219.497"/>
	<line fill="none" stroke="#444444" stroke-miterlimit="10" x1="63.178" y1="215.375" x2="58.265" y2="214.466"/>
	<line fill="none" stroke="#444444" stroke-miterlimit="10" x1="64.151" y1="210.497" x2="59.263" y2="209.459"/>
	<line fill="none" stroke="#444444" stroke-miterlimit="10" x1="65.249" y1="205.646" x2="60.391" y2="204.48"/>
	<line fill="none" stroke="#444444" stroke-miterlimit="10" x1="76.104" y1="203.406" x2="61.618" y2="199.525"/>
	<line fill="none" stroke="#444444" stroke-miterlimit="10" x1="67.798" y1="196.031" x2="63.009" y2="194.611"/>
	<line fill="none" stroke="#444444" stroke-miterlimit="10" x1="69.277" y1="191.282" x2="64.526" y2="189.738"/>
	<line fill="none" stroke="#444444" stroke-miterlimit="10" x1="70.879" y1="186.57" x2="66.173" y2="184.905"/>
	<line fill="none" stroke="#444444" stroke-miterlimit="10" x1="72.607" y1="181.907" x2="67.944" y2="180.117"/>
	<line fill="none" stroke="#444444" stroke-miterlimit="10" x1="79.073" y1="179.203" x2="69.839" y2="175.377"/>
	<line fill="none" stroke="#444444" stroke-miterlimit="10" x1="76.421" y1="172.719" x2="71.857" y2="170.688"/>
	<line fill="none" stroke="#444444" stroke-miterlimit="10" x1="78.505" y1="168.202" x2="73.996" y2="166.052"/>
	<line fill="none" stroke="#444444" stroke-miterlimit="10" x1="80.708" y1="163.742" x2="76.254" y2="161.475"/>
	<line fill="none" stroke="#444444" stroke-miterlimit="10" x1="83.023" y1="159.341" x2="78.633" y2="156.957"/>
	<line fill="none" stroke="#444444" stroke-miterlimit="10" x1="94.088" y1="159.986" x2="81.101" y2="152.488"/>
	<line fill="none" stroke="#444444" stroke-miterlimit="10" x1="87.975" y1="150.713" x2="83.716" y2="148.103"/>
	<line fill="none" stroke="#444444" stroke-miterlimit="10" x1="90.632" y1="146.509" x2="86.443" y2="143.788"/>
	<line fill="none" stroke="#444444" stroke-miterlimit="10" x1="93.4" y1="142.372" x2="89.285" y2="139.546"/>
	<line fill="none" stroke="#444444" stroke-miterlimit="10" x1="96.275" y1="138.315" x2="92.234" y2="135.379"/>
	<line fill="none" stroke="#444444" stroke-miterlimit="10" x1="103.221" y1="137.377" x2="95.292" y2="131.291"/>
	<line fill="none" stroke="#444444" stroke-miterlimit="10" x1="102.337" y1="130.427" x2="98.455" y2="127.283"/>
	<line fill="none" stroke="#444444" stroke-miterlimit="10" x1="105.52" y1="126.604" x2="101.72" y2="123.359"/>
	<line fill="none" stroke="#444444" stroke-miterlimit="10" x1="108.801" y1="122.865" x2="105.086" y2="119.522"/>
	<line fill="none" stroke="#444444" stroke-miterlimit="10" x1="112.177" y1="119.213" x2="108.553" y2="115.775"/>
	<line fill="none" stroke="#444444" stroke-miterlimit="10" x1="122.698" y1="122.701" x2="112.094" y2="112.098"/>
	<line fill="none" stroke="#444444" stroke-miterlimit="10" x1="119.194" y1="112.161" x2="115.755" y2="108.538"/>
	<line fill="none" stroke="#444444" stroke-miterlimit="10" x1="122.848" y1="108.788" x2="119.505" y2="105.076"/>
	<line fill="none" stroke="#444444" stroke-miterlimit="10" x1="126.592" y1="105.509" x2="123.348" y2="101.714"/>
	<line fill="none" stroke="#444444" stroke-miterlimit="10" x1="130.418" y1="102.334" x2="127.276" y2="98.451"/>
	<line fill="none" stroke="#444444" stroke-miterlimit="10" x1="137.372" y1="103.226" x2="131.288" y2="95.295"/>
	<line fill="none" stroke="#444444" stroke-miterlimit="10" x1="138.316" y1="96.283" x2="135.379" y2="92.242"/>
	<line fill="none" stroke="#444444" stroke-miterlimit="10" x1="142.38" y1="93.414" x2="139.549" y2="89.297"/>
	<line fill="none" stroke="#444444" stroke-miterlimit="10" x1="146.517" y1="90.652" x2="143.794" y2="86.463"/>
	<line fill="none" stroke="#444444" stroke-miterlimit="10" x1="150.724" y1="87.999" x2="148.113" y2="83.74"/>
	<line fill="none" stroke="#444444" stroke-miterlimit="10" x1="159.983" y1="94.091" x2="152.485" y2="81.104"/>
	<line fill="none" stroke="#444444" stroke-miterlimit="10" x1="159.326" y1="83.003" x2="156.943" y2="78.613"/>
	<line fill="none" stroke="#444444" stroke-miterlimit="10" x1="163.729" y1="80.69" x2="161.46" y2="76.24"/>
	<line fill="none" stroke="#444444" stroke-miterlimit="10" x1="168.195" y1="78.492" x2="166.043" y2="73.987"/>
	<line fill="none" stroke="#444444" stroke-miterlimit="10" x1="172.712" y1="76.416" x2="170.681" y2="71.852"/>
	<line fill="none" stroke="#444444" stroke-miterlimit="10" x1="179.197" y1="79.076" x2="175.374" y2="69.842"/>
	<line fill="none" stroke="#444444" stroke-miterlimit="10" x1="181.907" y1="72.615" x2="180.116" y2="67.952"/>
	<line fill="none" stroke="#444444" stroke-miterlimit="10" x1="186.574" y1="70.896" x2="184.906" y2="66.187"/>
	<line fill="none" stroke="#444444" stroke-miterlimit="10" x1="191.285" y1="69.299" x2="189.739" y2="64.547"/>
	<line fill="none" stroke="#444444" stroke-miterlimit="10" x1="196.036" y1="67.825" x2="194.616" y2="63.035"/>
	<line fill="none" stroke="#444444" stroke-miterlimit="10" x1="203.403" y1="76.105" x2="199.521" y2="61.621"/>
	<line fill="none" stroke="#444444" stroke-miterlimit="10" x1="205.638" y1="65.225" x2="204.472" y2="60.369"/>
	<line fill="none" stroke="#444444" stroke-miterlimit="10" x1="210.489" y1="64.131" x2="209.45" y2="59.245"/>
	<line fill="none" stroke="#444444" stroke-miterlimit="10" x1="215.372" y1="63.164" x2="214.459" y2="58.256"/>
	<line fill="none" stroke="#444444" stroke-miterlimit="10" x1="220.272" y1="62.327" x2="219.492" y2="57.393"/>
	<line fill="none" stroke="#444444" stroke-miterlimit="10" x1="225.848" y1="66.576" x2="224.545" y2="56.666"/>
	<line fill="none" stroke="#444444" stroke-miterlimit="10" x1="230.138" y1="61.036" x2="229.615" y2="56.068"/>
	<line fill="none" stroke="#444444" stroke-miterlimit="10" x1="235.091" y1="60.583" x2="234.698" y2="55.603"/>
	<line fill="none" stroke="#444444" stroke-miterlimit="10" x1="240.055" y1="60.26" x2="239.792" y2="55.27"/>
	<line fill="none" stroke="#444444" stroke-miterlimit="10" x1="245.025" y1="60.066" x2="244.893" y2="55.072"/>
	<line fill="none" stroke="#444444" stroke-miterlimit="10" x1="249.853" y1="88.517" x2="249.846" y2="24.935"/>
	<line fill="none" stroke="#444444" stroke-miterlimit="10" x1="254.973" y1="60.039" x2="255.104" y2="55.048"/>
	<line fill="none" stroke="#444444" stroke-miterlimit="10" x1="259.941" y1="60.238" x2="260.203" y2="55.25"/>
	<line fill="none" stroke="#444444" stroke-miterlimit="10" x1="264.908" y1="60.568" x2="265.297" y2="55.591"/>
	<line fill="none" stroke="#444444" stroke-miterlimit="10" x1="269.857" y1="61.028" x2="270.382" y2="56.06"/>
	<line fill="none" stroke="#444444" stroke-miterlimit="10" x1="274.145" y1="66.575" x2="275.451" y2="56.666"/>
	<line fill="none" stroke="#444444" stroke-miterlimit="10" x1="279.723" y1="62.334" x2="280.502" y2="57.4"/>
	<line fill="none" stroke="#444444" stroke-miterlimit="10" x1="284.623" y1="63.179" x2="285.533" y2="58.267"/>
	<line fill="none" stroke="#444444" stroke-miterlimit="10" x1="289.502" y1="64.151" x2="290.539" y2="59.264"/>
	<line fill="none" stroke="#444444" stroke-miterlimit="10" x1="294.354" y1="65.251" x2="295.518" y2="60.393"/>
	<line fill="none" stroke="#444444" stroke-miterlimit="10" x1="296.594" y1="76.105" x2="300.473" y2="61.62"/>
	<line fill="none" stroke="#444444" stroke-miterlimit="10" x1="303.969" y1="67.799" x2="305.387" y2="63.012"/>
	<line fill="none" stroke="#444444" stroke-miterlimit="10" x1="308.717" y1="69.277" x2="310.26" y2="64.527"/>
	<line fill="none" stroke="#444444" stroke-miterlimit="10" x1="313.428" y1="70.882" x2="315.092" y2="66.174"/>
	<line fill="none" stroke="#444444" stroke-miterlimit="10" x1="318.09" y1="72.607" x2="319.883" y2="67.943"/>
	<line fill="none" stroke="#444444" stroke-miterlimit="10" x1="320.795" y1="79.074" x2="324.623" y2="69.841"/>
	<line fill="none" stroke="#444444" stroke-miterlimit="10" x1="327.281" y1="76.422" x2="329.311" y2="71.857"/>
	<line fill="none" stroke="#444444" stroke-miterlimit="10" x1="331.797" y1="78.506" x2="333.947" y2="73.997"/>
	<line fill="none" stroke="#444444" stroke-miterlimit="10" x1="336.257" y1="80.708" x2="338.523" y2="76.256"/>
	<line fill="none" stroke="#444444" stroke-miterlimit="10" x1="340.658" y1="83.025" x2="343.041" y2="78.635"/>
	<line fill="none" stroke="#444444" stroke-miterlimit="10" x1="340.014" y1="94.091" x2="347.51" y2="81.103"/>
	<line fill="none" stroke="#444444" stroke-miterlimit="10" x1="349.287" y1="87.976" x2="351.896" y2="83.719"/>
	<line fill="none" stroke="#444444" stroke-miterlimit="10" x1="353.49" y1="90.633" x2="356.211" y2="86.444"/>
	<line fill="none" stroke="#444444" stroke-miterlimit="10" x1="357.625" y1="93.401" x2="360.451" y2="89.285"/>
	<line fill="none" stroke="#444444" stroke-miterlimit="10" x1="361.682" y1="96.275" x2="364.621" y2="92.234"/>
	<line fill="none" stroke="#444444" stroke-miterlimit="10" x1="362.621" y1="103.222" x2="368.709" y2="95.294"/>
	<line fill="none" stroke="#444444" stroke-miterlimit="10" x1="369.573" y1="102.339" x2="372.715" y2="98.455"/>
	<line fill="none" stroke="#444444" stroke-miterlimit="10" x1="373.396" y1="105.521" x2="376.641" y2="101.722"/>
	<line fill="none" stroke="#444444" stroke-miterlimit="10" x1="377.133" y1="108.802" x2="380.475" y2="105.088"/>
	<line fill="none" stroke="#444444" stroke-miterlimit="10" x1="380.785" y1="112.18" x2="384.223" y2="108.555"/>
	<line fill="none" stroke="#444444" stroke-miterlimit="10" x1="377.299" y1="122.701" x2="387.9" y2="112.096"/>
	<line fill="none" stroke="#444444" stroke-miterlimit="10" x1="387.839" y1="119.193" x2="391.461" y2="115.758"/>
	<line fill="none" stroke="#444444" stroke-miterlimit="10" x1="391.211" y1="122.849" x2="394.924" y2="119.507"/>
	<line fill="none" stroke="#444444" stroke-miterlimit="10" x1="394.488" y1="126.594" x2="398.283" y2="123.349"/>
	<line fill="none" stroke="#444444" stroke-miterlimit="10" x1="397.662" y1="130.419" x2="401.549" y2="127.276"/>
	<line fill="none" stroke="#444444" stroke-miterlimit="10" x1="396.773" y1="137.372" x2="404.705" y2="131.29"/>
	<line fill="none" stroke="#444444" stroke-miterlimit="10" x1="403.717" y1="138.318" x2="407.756" y2="135.38"/>
	<line fill="none" stroke="#444444" stroke-miterlimit="10" x1="406.586" y1="142.381" x2="410.703" y2="139.551"/>
	<line fill="none" stroke="#444444" stroke-miterlimit="10" x1="409.346" y1="146.518" x2="413.535" y2="143.795"/>
	<line fill="none" stroke="#444444" stroke-miterlimit="10" x1="412" y1="150.726" x2="416.258" y2="148.113"/>
	<line fill="none" stroke="#444444" stroke-miterlimit="10" x1="405.908" y1="159.986" x2="418.895" y2="152.486"/>
	<line fill="none" stroke="#444444" stroke-miterlimit="10" x1="416.998" y1="159.326" x2="421.385" y2="156.945"/>
	<line fill="none" stroke="#444444" stroke-miterlimit="10" x1="419.309" y1="163.729" x2="423.76" y2="161.463"/>
	<line fill="none" stroke="#444444" stroke-miterlimit="10" x1="421.505" y1="168.195" x2="426.01" y2="166.043"/>
	<line fill="none" stroke="#444444" stroke-miterlimit="10" x1="423.58" y1="172.712" x2="428.148" y2="170.682"/>
	<line fill="none" stroke="#444444" stroke-miterlimit="10" x1="420.922" y1="179.197" x2="430.158" y2="175.376"/>
	<line fill="none" stroke="#444444" stroke-miterlimit="10" x1="427.385" y1="181.909" x2="432.047" y2="180.115"/>
	<line fill="none" stroke="#444444" stroke-miterlimit="10" x1="429.104" y1="186.576" x2="433.813" y2="184.907"/>
	<line fill="none" stroke="#444444" stroke-miterlimit="10" x1="430.699" y1="191.285" x2="435.451" y2="189.74"/>
	<line fill="none" stroke="#444444" stroke-miterlimit="10" x1="432.174" y1="196.037" x2="436.963" y2="194.616"/>
	<line fill="none" stroke="#444444" stroke-miterlimit="10" x1="423.893" y1="203.406" x2="438.379" y2="199.522"/>
	<line fill="none" stroke="#444444" stroke-miterlimit="10" x1="434.775" y1="205.639" x2="439.629" y2="204.475"/>
	<line fill="none" stroke="#444444" stroke-miterlimit="10" x1="435.867" y1="210.49" x2="440.754" y2="209.452"/>
	<line fill="none" stroke="#444444" stroke-miterlimit="10" x1="436.834" y1="215.371" x2="441.742" y2="214.459"/>
	<line fill="none" stroke="#444444" stroke-miterlimit="10" x1="437.67" y1="220.271" x2="442.607" y2="219.493"/>
	<line fill="none" stroke="#444444" stroke-miterlimit="10" x1="433.423" y1="225.848" x2="443.334" y2="224.547"/>
	<line fill="none" stroke="#444444" stroke-miterlimit="10" x1="438.963" y1="230.141" x2="443.932" y2="229.614"/>
	<line fill="none" stroke="#444444" stroke-miterlimit="10" x1="439.416" y1="235.094" x2="444.397" y2="234.7"/>
	<line fill="none" stroke="#444444" stroke-miterlimit="10" x1="439.738" y1="240.055" x2="444.729" y2="239.792"/>
	<line fill="none" stroke="#444444" stroke-miterlimit="10" x1="439.934" y1="245.026" x2="444.927" y2="244.894"/>
	<line fill="none" stroke="#444444" stroke-miterlimit="10" x1="430.027" y1="250.001" x2="445.025" y2="249.999"/>
	<line fill="none" stroke="#444444" stroke-miterlimit="10" x1="439.961" y1="254.974" x2="444.951" y2="255.105"/>
	<line fill="none" stroke="#444444" stroke-miterlimit="10" x1="439.76" y1="259.943" x2="444.748" y2="260.205"/>
	<line fill="none" stroke="#444444" stroke-miterlimit="10" x1="439.43" y1="264.907" x2="444.407" y2="265.297"/>
	<line fill="none" stroke="#444444" stroke-miterlimit="10" x1="438.969" y1="269.857" x2="443.939" y2="270.384"/>
	<line fill="none" stroke="#444444" stroke-miterlimit="10" x1="433.424" y1="274.145" x2="443.334" y2="275.453"/>
	<line fill="none" stroke="#444444" stroke-miterlimit="10" x1="437.664" y1="279.725" x2="442.6" y2="280.502"/>
	<line fill="none" stroke="#444444" stroke-miterlimit="10" x1="436.82" y1="284.627" x2="441.733" y2="285.535"/>
	<line fill="none" stroke="#444444" stroke-miterlimit="10" x1="435.848" y1="289.502" x2="440.735" y2="290.539"/>
	<line fill="none" stroke="#444444" stroke-miterlimit="10" x1="434.748" y1="294.354" x2="439.606" y2="295.519"/>
	<line fill="none" stroke="#444444" stroke-miterlimit="10" x1="423.893" y1="296.596" x2="438.381" y2="300.476"/>
	<line fill="none" stroke="#444444" stroke-miterlimit="10" x1="432.201" y1="303.971" x2="436.986" y2="305.389"/>
	<line fill="none" stroke="#444444" stroke-miterlimit="10" x1="430.721" y1="308.719" x2="435.471" y2="310.263"/>
	<line fill="none" stroke="#444444" stroke-miterlimit="10" x1="429.117" y1="313.428" x2="433.824" y2="315.092"/>
	<line fill="none" stroke="#444444" stroke-miterlimit="10" x1="427.391" y1="318.09" x2="432.055" y2="319.885"/>
	<line fill="none" stroke="#444444" stroke-miterlimit="10" x1="420.925" y1="320.796" x2="430.158" y2="324.625"/>
	<line fill="none" stroke="#444444" stroke-miterlimit="10" x1="423.576" y1="327.283" x2="428.143" y2="329.312"/>
	<line fill="none" stroke="#444444" stroke-miterlimit="10" x1="421.492" y1="331.8" x2="426.003" y2="333.949"/>
	<line fill="none" stroke="#444444" stroke-miterlimit="10" x1="419.291" y1="336.257" x2="423.744" y2="338.524"/>
	<line fill="none" stroke="#444444" stroke-miterlimit="10" x1="416.973" y1="340.66" x2="421.365" y2="343.041"/>
	<line fill="none" stroke="#444444" stroke-miterlimit="10" x1="405.908" y1="340.015" x2="418.898" y2="347.513"/>
	<line fill="none" stroke="#444444" stroke-miterlimit="10" x1="412.023" y1="349.289" x2="416.279" y2="351.897"/>
	<line fill="none" stroke="#444444" stroke-miterlimit="10" x1="409.365" y1="353.492" x2="413.554" y2="356.213"/>
	<line fill="none" stroke="#444444" stroke-miterlimit="10" x1="406.598" y1="357.626" x2="410.713" y2="360.451"/>
	<line fill="none" stroke="#444444" stroke-miterlimit="10" x1="403.723" y1="361.682" x2="407.764" y2="364.623"/>
	<line fill="none" stroke="#444444" stroke-miterlimit="10" x1="396.777" y1="362.622" x2="404.705" y2="368.711"/>
	<line fill="none" stroke="#444444" stroke-miterlimit="10" x1="397.659" y1="369.575" x2="401.545" y2="372.716"/>
	<line fill="none" stroke="#444444" stroke-miterlimit="10" x1="394.477" y1="373.398" x2="398.278" y2="376.642"/>
	<line fill="none" stroke="#444444" stroke-miterlimit="10" x1="391.197" y1="377.134" x2="394.912" y2="380.477"/>
	<line fill="none" stroke="#444444" stroke-miterlimit="10" x1="387.818" y1="380.787" x2="391.445" y2="384.224"/>
	<line fill="none" stroke="#444444" stroke-miterlimit="10" x1="377.299" y1="377.3" x2="387.904" y2="387.904"/>
	<line fill="none" stroke="#444444" stroke-miterlimit="10" x1="380.805" y1="387.841" x2="384.24" y2="391.462"/>
	<line fill="none" stroke="#444444" stroke-miterlimit="10" x1="377.149" y1="391.213" x2="380.49" y2="394.925"/>
	<line fill="none" stroke="#444444" stroke-miterlimit="10" x1="373.406" y1="394.489" x2="376.65" y2="398.283"/>
	<line fill="none" stroke="#444444" stroke-miterlimit="10" x1="369.579" y1="397.663" x2="372.721" y2="401.55"/>
	<line fill="none" stroke="#444444" stroke-miterlimit="10" x1="362.627" y1="396.773" x2="368.709" y2="404.707"/>
	<line fill="none" stroke="#444444" stroke-miterlimit="10" x1="361.68" y1="403.718" x2="364.619" y2="407.758"/>
	<line fill="none" stroke="#444444" stroke-miterlimit="10" x1="357.615" y1="406.588" x2="360.448" y2="410.704"/>
	<line fill="none" stroke="#444444" stroke-miterlimit="10" x1="353.48" y1="409.347" x2="356.205" y2="413.537"/>
	<line fill="none" stroke="#444444" stroke-miterlimit="10" x1="349.271" y1="412.001" x2="351.887" y2="416.259"/>
	<line fill="none" stroke="#444444" stroke-miterlimit="10" x1="340.014" y1="405.91" x2="347.514" y2="418.897"/>
	<path fill="#00102A" d="M249.85,111.045v17.67c63.434,0,114.855,51.422,114.855,114.854c0,42.508-23.095,79.621-57.42,99.482
		l8.836,15.305c39.606-22.916,66.254-65.738,66.254-114.787C382.375,170.379,323.041,111.045,249.85,111.045z"/>
	<g>
		<g>
			<path fill="#555555" d="M133.225,252.878l-3.481,1.815l0.685,6.162l3.794,1.007l0.192,1.729l-14.25-3.647l-0.239-2.146
				l13.101-6.688L133.225,252.878z M121.893,258.646l0.011,0.1l6.858,1.772l-0.568-5.108L121.893,258.646z"/>
			<path fill="#555555" d="M133.078,242.221c-0.085,0.897-0.18,1.691-0.284,2.381l-1.579-0.056c0.234-1.726,0.373-3.168,0.414-4.328
				c0.025-0.72,0.016-1.291-0.03-1.712c-0.045-0.422-0.142-0.782-0.292-1.081c-0.15-0.272-0.381-0.454-0.691-0.545
				c-0.31-0.091-0.725-0.146-1.245-0.164c-0.626-0.022-1.071-0.004-1.333,0.053c-0.262,0.058-0.458,0.208-0.586,0.45
				c-0.128,0.243-0.23,0.662-0.305,1.26l-0.5,3.385c-0.123,0.823-0.341,1.438-0.656,1.848c-0.315,0.409-0.718,0.675-1.209,0.798
				s-1.13,0.17-1.917,0.142c-1.092-0.039-1.912-0.258-2.458-0.657c-0.546-0.4-0.9-0.946-1.063-1.639
				c-0.162-0.693-0.223-1.619-0.182-2.778c0.027-0.772,0.089-1.558,0.184-2.355c0.095-0.797,0.198-1.427,0.307-1.89l1.519,0.054
				c-0.098,0.504-0.183,1.127-0.256,1.872s-0.121,1.437-0.144,2.076c-0.026,0.747-0.015,1.347,0.036,1.802
				c0.051,0.456,0.151,0.813,0.302,1.072c0.15,0.285,0.357,0.473,0.621,0.562s0.642,0.143,1.135,0.161
				c0.546,0.019,0.944-0.007,1.193-0.078c0.25-0.071,0.435-0.218,0.556-0.44c0.122-0.223,0.218-0.593,0.29-1.11l0.499-3.345
				c0.108-0.796,0.271-1.411,0.486-1.844s0.586-0.74,1.113-0.921c0.486-0.169,1.256-0.235,2.309-0.198
				c1.212,0.043,2.109,0.262,2.688,0.656s0.942,0.907,1.086,1.54c0.145,0.632,0.197,1.495,0.159,2.587
				C133.219,240.508,133.163,241.324,133.078,242.221z"/>
			<path fill="#555555" d="M134.63,224.684l-11.917-2.1l-0.757,4.294l-1.635-0.288l1.808-10.262l1.635,0.288l-0.753,4.274
				l11.917,2.1L134.63,224.684z"/>
			<path fill="#555555" d="M137.417,212.066l-13.092-4.236l2.759-8.525l1.522,0.493l-2.229,6.888l4.205,1.361l1.934-5.975
				l1.522,0.493l-1.933,5.975l4.319,1.398l2.229-6.889l1.522,0.493L137.417,212.066z"/>
			<path fill="#555555" d="M146.724,189.122l-5.789-0.478l-0.151,0.305l-1.917,3.872l4.839,2.396l-0.763,1.542l-12.332-6.104
				l2.804-5.664c0.485-0.979,1.007-1.644,1.566-1.992c0.56-0.348,1.14-0.47,1.743-0.365c0.603,0.105,1.316,0.361,2.141,0.77
				c0.849,0.42,1.524,0.911,2.027,1.472c0.503,0.562,0.676,1.287,0.519,2.176l6.128,0.423L146.724,189.122z M139.751,186.82
				c0.019-0.444-0.101-0.794-0.362-1.049c-0.26-0.255-0.689-0.531-1.287-0.827c-0.609-0.302-1.093-0.481-1.451-0.54
				c-0.358-0.058-0.699,0.045-1.023,0.308c-0.324,0.264-0.669,0.766-1.036,1.507l-1.784,3.603l4.625,2.289l1.722-3.477
				C139.534,187.869,139.732,187.265,139.751,186.82z"/>
			<path fill="#555555" d="M156.585,173.725l-12.781-0.157l-0.046,0.065l8.585,6.081l-0.959,1.355l-11.229-7.954l1.018-1.436
				l12.527,0.099l0.046-0.065l-8.389-5.942l0.948-1.338l11.229,7.954L156.585,173.725z"/>
		</g>
		<g>
			<path fill="#555555" d="M350.952,184.929l2.313-3.172l-3.351-5.217l-3.847,0.783l-0.94-1.464l14.388-3.06l1.167,1.817
				l-8.768,11.811L350.952,184.929z M358.544,174.729l-0.054-0.084l-6.932,1.457l2.777,4.325L358.544,174.729z"/>
			<path fill="#555555" d="M358.637,200.6l5.585-2.453l-2.902-6.611l-5.586,2.453l-0.691-1.575l12.6-5.532l0.691,1.575l-5.494,2.413
				l2.903,6.611l5.493-2.413l0.684,1.557l-12.599,5.532L358.637,200.6z"/>
			<path fill="#555555" d="M361.945,209.912l13.288-3.573l2.326,8.652l-1.545,0.416l-1.88-6.992l-4.269,1.148l1.631,6.065
				l-1.545,0.416l-1.631-6.065l-4.385,1.179l1.881,6.992l-1.545,0.416L361.945,209.912z"/>
			<path fill="#555555" d="M366.727,235.037l3.471-1.835l-0.719-6.158l-3.8-0.986l-0.202-1.729l14.271,3.57l0.251,2.145
				l-13.064,6.761L366.727,235.037z M378.027,229.208l-0.012-0.1l-6.867-1.735l0.596,5.105L378.027,229.208z"/>
			<path fill="#555555" d="M380.85,244.077l-0.154,4.377c-0.067,1.906-0.285,3.245-0.652,4.02s-0.995,1.252-1.882,1.435
				c-0.887,0.182-2.403,0.235-4.548,0.16c-2.146-0.076-3.654-0.236-4.526-0.48s-1.464-0.766-1.776-1.563
				c-0.312-0.798-0.434-2.15-0.366-4.056l0.154-4.377L380.85,244.077z M368.553,247.746c-0.055,1.559-0.009,2.611,0.139,3.157
				c0.147,0.545,0.548,0.91,1.202,1.093c0.654,0.184,1.913,0.308,3.779,0.374c1.852,0.065,3.114,0.026,3.786-0.116
				c0.672-0.144,1.102-0.481,1.287-1.016c0.186-0.534,0.306-1.574,0.36-3.119l0.084-2.379l-10.554-0.373L368.553,247.746z"/>
		</g>
	</g>
	<g>
		<path fill="#444444" d="M247.336,103.362c-0.49-0.248-0.798-0.684-0.924-1.309s-0.189-1.708-0.189-3.248s0.063-2.623,0.189-3.248
			c0.126-0.625,0.434-1.062,0.924-1.309c0.49-0.247,1.328-0.371,2.513-0.371s2.023,0.124,2.513,0.371
			c0.49,0.248,0.798,0.686,0.925,1.316c0.125,0.63,0.188,1.71,0.188,3.241c0,1.54-0.063,2.623-0.188,3.248
			c-0.127,0.625-0.435,1.062-0.925,1.309c-0.489,0.247-1.327,0.371-2.513,0.371S247.827,103.609,247.336,103.362z M251.578,102.424
			c0.295-0.126,0.483-0.422,0.567-0.889s0.126-1.376,0.126-2.73c0-1.353-0.042-2.263-0.126-2.73s-0.272-0.763-0.567-0.889
			c-0.293-0.126-0.87-0.189-1.729-0.189c-0.859,0-1.438,0.063-1.736,0.189s-0.49,0.422-0.574,0.889s-0.126,1.377-0.126,2.73
			c0,1.354,0.042,2.263,0.126,2.73s0.275,0.763,0.574,0.889c0.299,0.126,0.877,0.189,1.736,0.189
			C250.708,102.613,251.285,102.55,251.578,102.424z"/>
	</g>
	<g>
		<path fill="#444444" d="M85.542,209.489c0.709,0,1.244-0.054,1.603-0.161c0.359-0.107,0.606-0.292,0.742-0.553
			c0.135-0.261,0.203-0.639,0.203-1.134c0-0.541-0.072-0.933-0.217-1.176c-0.145-0.242-0.401-0.403-0.77-0.483
			c-0.369-0.079-0.95-0.119-1.743-0.119c-0.672,0-1.503,0.061-2.492,0.182v-5.18h5.726v1.134h-4.62v2.87
			c0.672-0.084,1.386-0.126,2.142-0.126c0.887,0,1.559,0.1,2.016,0.301c0.457,0.201,0.768,0.495,0.931,0.882
			c0.163,0.387,0.245,0.912,0.245,1.575c0,0.793-0.101,1.41-0.301,1.848c-0.201,0.439-0.563,0.758-1.085,0.959
			c-0.523,0.201-1.283,0.301-2.282,0.301c-0.448,0-0.945-0.023-1.491-0.07s-1.01-0.107-1.393-0.182v-1.036
			C83.895,209.433,84.823,209.489,85.542,209.489z"/>
		<path fill="#444444" d="M92.479,210.238c-0.49-0.248-0.798-0.684-0.924-1.309s-0.189-1.708-0.189-3.248s0.063-2.623,0.189-3.248
			c0.126-0.625,0.434-1.062,0.924-1.309c0.49-0.247,1.328-0.371,2.513-0.371c1.185,0,2.023,0.124,2.513,0.371
			c0.49,0.248,0.798,0.686,0.924,1.316c0.126,0.63,0.189,1.71,0.189,3.241c0,1.54-0.063,2.623-0.189,3.248s-0.434,1.062-0.924,1.309
			c-0.49,0.247-1.328,0.371-2.513,0.371C93.806,210.609,92.969,210.485,92.479,210.238z M96.721,209.3
			c0.294-0.126,0.483-0.422,0.567-0.889s0.126-1.376,0.126-2.73c0-1.353-0.042-2.263-0.126-2.73s-0.273-0.763-0.567-0.889
			s-0.871-0.189-1.729-0.189c-0.859,0-1.438,0.063-1.736,0.189s-0.49,0.422-0.574,0.889s-0.126,1.377-0.126,2.73
			c0,1.354,0.042,2.263,0.126,2.73s0.275,0.763,0.574,0.889c0.299,0.126,0.877,0.189,1.736,0.189
			C95.85,209.489,96.427,209.426,96.721,209.3z"/>
	</g>
	<g>
		<path fill="#444444" d="M156.516,401.549v-8.147l-1.988,0.952v-1.162l2.338-1.273h0.854v9.631H156.516z"/>
		<path fill="#444444" d="M161.465,401.291c-0.49-0.248-0.798-0.684-0.924-1.31s-0.189-1.708-0.189-3.248s0.063-2.622,0.189-3.248
			c0.126-0.625,0.434-1.062,0.924-1.31c0.49-0.246,1.328-0.371,2.513-0.371c1.185,0,2.023,0.125,2.513,0.371
			c0.49,0.248,0.798,0.687,0.924,1.316c0.126,0.631,0.189,1.711,0.189,3.241c0,1.54-0.063,2.622-0.189,3.248
			s-0.434,1.062-0.924,1.31c-0.49,0.246-1.328,0.37-2.513,0.37C162.792,401.661,161.955,401.537,161.465,401.291z M165.707,400.353
			c0.294-0.126,0.483-0.423,0.567-0.89s0.126-1.376,0.126-2.729c0-1.353-0.042-2.263-0.126-2.729s-0.273-0.764-0.567-0.89
			s-0.871-0.188-1.729-0.188c-0.859,0-1.438,0.063-1.736,0.188s-0.49,0.423-0.574,0.89s-0.126,1.377-0.126,2.729
			c0,1.354,0.042,2.263,0.126,2.729s0.275,0.764,0.574,0.89s0.877,0.188,1.736,0.188
			C164.836,400.541,165.413,400.479,165.707,400.353z"/>
		<path fill="#444444" d="M170.873,401.291c-0.49-0.248-0.798-0.684-0.924-1.31s-0.189-1.708-0.189-3.248s0.063-2.622,0.189-3.248
			c0.126-0.625,0.434-1.062,0.924-1.31c0.49-0.246,1.328-0.371,2.513-0.371c1.185,0,2.023,0.125,2.513,0.371
			c0.49,0.248,0.798,0.687,0.924,1.316c0.126,0.631,0.189,1.711,0.189,3.241c0,1.54-0.063,2.622-0.189,3.248
			s-0.434,1.062-0.924,1.31c-0.49,0.246-1.328,0.37-2.513,0.37C172.2,401.661,171.363,401.537,170.873,401.291z M175.115,400.353
			c0.294-0.126,0.483-0.423,0.567-0.89s0.126-1.376,0.126-2.729c0-1.353-0.042-2.263-0.126-2.729s-0.273-0.764-0.567-0.89
			s-0.871-0.188-1.729-0.188c-0.859,0-1.438,0.063-1.736,0.188s-0.49,0.423-0.574,0.89s-0.126,1.377-0.126,2.729
			c0,1.354,0.042,2.263,0.126,2.729s0.275,0.764,0.574,0.89s0.877,0.188,1.736,0.188
			C174.244,400.541,174.821,400.479,175.115,400.353z"/>
	</g>
	<g>
		<path fill="#444444" d="M326.73,401.549v-8.147l-1.988,0.952v-1.162l2.338-1.273h0.854v9.631H326.73z"/>
		<path fill="#444444" d="M331.68,401.291c-0.49-0.248-0.799-0.684-0.924-1.31c-0.127-0.626-0.189-1.708-0.189-3.248
			s0.063-2.622,0.189-3.248c0.125-0.625,0.434-1.062,0.924-1.31c0.49-0.246,1.327-0.371,2.513-0.371
			c1.185,0,2.022,0.125,2.513,0.371c0.49,0.248,0.799,0.687,0.924,1.316c0.127,0.631,0.189,1.711,0.189,3.241
			c0,1.54-0.063,2.622-0.189,3.248c-0.125,0.626-0.434,1.062-0.924,1.31c-0.49,0.246-1.328,0.37-2.513,0.37
			C333.007,401.661,332.17,401.537,331.68,401.291z M335.922,400.353c0.293-0.126,0.482-0.423,0.566-0.89s0.126-1.376,0.126-2.729
			c0-1.353-0.042-2.263-0.126-2.729s-0.273-0.764-0.566-0.89c-0.295-0.126-0.871-0.188-1.729-0.188s-1.438,0.063-1.736,0.188
			s-0.489,0.423-0.573,0.89s-0.127,1.377-0.127,2.729c0,1.354,0.043,2.263,0.127,2.729s0.274,0.764,0.573,0.89
			s0.878,0.188,1.736,0.188S335.627,400.479,335.922,400.353z"/>
		<path fill="#444444" d="M341.087,401.291c-0.489-0.248-0.798-0.684-0.924-1.31s-0.188-1.708-0.188-3.248s0.063-2.622,0.188-3.248
			c0.126-0.625,0.435-1.062,0.924-1.31c0.49-0.246,1.327-0.371,2.513-0.371s2.023,0.125,2.514,0.371
			c0.49,0.248,0.798,0.687,0.924,1.316c0.126,0.631,0.189,1.711,0.189,3.241c0,1.54-0.063,2.622-0.189,3.248
			s-0.434,1.062-0.924,1.31c-0.49,0.246-1.328,0.37-2.514,0.37S341.577,401.537,341.087,401.291z M345.329,400.353
			c0.294-0.126,0.483-0.423,0.567-0.89s0.125-1.376,0.125-2.729c0-1.353-0.041-2.263-0.125-2.729s-0.273-0.764-0.567-0.89
			s-0.87-0.188-1.729-0.188c-0.858,0-1.438,0.063-1.736,0.188s-0.489,0.423-0.573,0.89s-0.126,1.377-0.126,2.729
			c0,1.354,0.042,2.263,0.126,2.729s0.274,0.764,0.573,0.89s0.878,0.188,1.736,0.188
			C344.459,400.541,345.035,400.479,345.329,400.353z"/>
	</g>
	<g>
		<path fill="#444444" d="M403.535,209.489c0.709,0,1.244-0.054,1.604-0.161c0.358-0.107,0.605-0.292,0.741-0.553
			c0.136-0.261,0.203-0.639,0.203-1.134c0-0.541-0.072-0.933-0.217-1.176c-0.146-0.242-0.401-0.403-0.771-0.483
			c-0.369-0.079-0.949-0.119-1.742-0.119c-0.672,0-1.504,0.061-2.492,0.182v-5.18h5.726v1.134h-4.62v2.87
			c0.672-0.084,1.387-0.126,2.143-0.126c0.887,0,1.559,0.1,2.016,0.301c0.457,0.201,0.768,0.495,0.932,0.882
			c0.162,0.387,0.244,0.912,0.244,1.575c0,0.793-0.1,1.41-0.301,1.848c-0.201,0.439-0.563,0.758-1.085,0.959
			s-1.283,0.301-2.282,0.301c-0.447,0-0.945-0.023-1.49-0.07c-0.547-0.046-1.011-0.107-1.394-0.182v-1.036
			C401.888,209.433,402.816,209.489,403.535,209.489z"/>
		<path fill="#444444" d="M410.472,210.238c-0.489-0.248-0.798-0.684-0.924-1.309s-0.188-1.708-0.188-3.248s0.063-2.623,0.188-3.248
			c0.126-0.625,0.435-1.062,0.924-1.309c0.49-0.247,1.327-0.371,2.513-0.371s2.023,0.124,2.514,0.371
			c0.49,0.248,0.798,0.686,0.924,1.316c0.126,0.63,0.189,1.71,0.189,3.241c0,1.54-0.063,2.623-0.189,3.248s-0.434,1.062-0.924,1.309
			c-0.49,0.247-1.328,0.371-2.514,0.371S410.962,210.485,410.472,210.238z M414.714,209.3c0.294-0.126,0.483-0.422,0.567-0.889
			s0.125-1.376,0.125-2.73c0-1.353-0.041-2.263-0.125-2.73s-0.273-0.763-0.567-0.889s-0.87-0.189-1.729-0.189
			c-0.858,0-1.438,0.063-1.736,0.189s-0.489,0.422-0.573,0.889s-0.126,1.377-0.126,2.73c0,1.354,0.042,2.263,0.126,2.73
			s0.274,0.763,0.573,0.889c0.299,0.126,0.878,0.189,1.736,0.189C413.844,209.489,414.42,209.426,414.714,209.3z"/>
	</g>
	<g>
		<path fill="#444444" d="M240.655,309.463c-0.581-0.31-0.956-0.84-1.125-1.59c-0.17-0.75-0.255-1.984-0.255-3.705
			c0-1.699,0.084-2.93,0.255-3.689c0.169-0.76,0.544-1.301,1.125-1.62c0.58-0.319,1.54-0.479,2.88-0.479
			c1.34,0,2.295,0.16,2.865,0.479c0.57,0.319,0.935,0.854,1.095,1.604s0.24,1.985,0.24,3.705c0,1.74-0.08,2.98-0.24,3.721
			s-0.525,1.265-1.095,1.574c-0.57,0.311-1.525,0.465-2.865,0.465C242.194,309.928,241.234,309.773,240.655,309.463z
			 M245.275,308.143c0.3-0.129,0.5-0.459,0.6-0.989s0.15-1.524,0.15-2.985c0-1.5-0.041-2.505-0.12-3.015
			c-0.08-0.511-0.275-0.835-0.585-0.976c-0.311-0.139-0.905-0.209-1.785-0.209c-0.86,0-1.445,0.07-1.755,0.209
			c-0.311,0.141-0.515,0.477-0.615,1.006s-0.15,1.525-0.15,2.984c0,1.461,0.05,2.455,0.15,2.985s0.305,0.86,0.615,0.989
			c0.31,0.131,0.895,0.195,1.755,0.195S244.975,308.273,245.275,308.143z M242.275,319.258l13.5-20.64h1.92l-13.471,20.64H242.275z
			 M253.615,319.033c-0.581-0.31-0.956-0.84-1.125-1.59c-0.171-0.75-0.256-1.984-0.256-3.705c0-1.699,0.085-2.93,0.256-3.689
			c0.169-0.76,0.544-1.301,1.125-1.621c0.579-0.319,1.539-0.479,2.879-0.479s2.301,0.16,2.881,0.479
			c0.58,0.32,0.949,0.855,1.109,1.605s0.24,1.985,0.24,3.705c0,1.721-0.08,2.955-0.24,3.705s-0.529,1.28-1.109,1.59
			c-0.58,0.311-1.541,0.465-2.881,0.465S254.194,319.344,253.615,319.033z M258.25,317.713c0.31-0.129,0.51-0.459,0.6-0.99
			c0.09-0.529,0.135-1.524,0.135-2.984c0-1.5-0.04-2.505-0.119-3.016c-0.08-0.51-0.275-0.834-0.586-0.975
			c-0.311-0.14-0.904-0.21-1.785-0.21c-0.859,0-1.444,0.07-1.754,0.21c-0.311,0.141-0.511,0.476-0.601,1.006
			c-0.09,0.529-0.135,1.525-0.135,2.984c0,1.46,0.045,2.455,0.135,2.984c0.09,0.531,0.29,0.861,0.601,0.99
			c0.31,0.131,0.895,0.195,1.754,0.195C257.354,317.908,257.939,317.844,258.25,317.713z"/>
	</g>
</g>
<g id="Dummy" display="none">
	
		<text transform="matrix(1 0 0 1 174.8501 271.1895)" display="inline" fill="#4DFCFF" font-family="'Saira-Regular'" font-size="60">-64.5</text>
</g>
<g id="size" display="none">
	<text transform="matrix(1 0 0 1 25.3022 422)" display="inline" fill="#FFFFFF" font-family="'Saira-Regular'" font-size="12">R450(250,250)</text>
	<text transform="matrix(1 0 0 1 55.3262 322)" display="inline" fill="#FFFFFF" font-family="'Saira-Regular'" font-size="12">R390(250,250)</text>
	<text transform="matrix(1 0 0 1 147.8604 435)" display="inline" fill="#FFFFFF" font-family="'Saira-Regular'" font-size="12">240deg</text>
	<text transform="matrix(1 0 0 1 307.2344 435)" display="inline" fill="#FFFFFF" font-family="'Saira-Regular'" font-size="12">300deg</text>
	<text transform="matrix(1 0 0 1 205.8823 304)" display="inline" fill="#FFFFFF" font-family="'Saira-Regular'" font-size="12">190x75(250,250)</text>
</g>
</svg>
